<svg width="18" height="18" viewBox="0 0 18 18" fill="none" xmlns="http://www.w3.org/2000/svg"><path d="M6.045 0.032 C 3.578 0.112,2.497 0.449,1.486 1.455 C 0.946 1.992,0.645 2.467,0.423 3.136 C 0.229 3.718,0.136 4.272,0.054 5.325 C -0.002 6.050,-0.002 11.950,0.054 12.675 C 0.136 13.728,0.229 14.282,0.423 14.864 C 0.643 15.525,0.944 16.005,1.470 16.530 C 2.263 17.324,3.095 17.695,4.455 17.862 C 5.366 17.974,5.774 17.985,9.000 17.985 C 12.226 17.985,12.634 17.974,13.545 17.862 C 14.600 17.732,15.395 17.451,16.010 16.991 C 16.311 16.766,16.766 16.311,16.991 16.010 C 17.451 15.395,17.732 14.600,17.862 13.545 C 17.974 12.634,17.985 12.226,17.985 9.000 C 17.985 5.774,17.974 5.366,17.862 4.455 C 17.732 3.400,17.452 2.606,16.992 1.990 C 16.759 1.679,16.271 1.197,15.972 0.984 C 15.061 0.334,14.067 0.105,11.832 0.030 C 10.844 -0.003,7.081 -0.002,6.045 0.032 M9.266 3.306 C 9.398 3.346,9.587 3.518,9.670 3.673 L 9.735 3.795 9.735 7.005 L 9.735 10.215 9.669 10.339 C 9.383 10.873,8.617 10.873,8.331 10.339 L 8.265 10.215 8.265 7.005 L 8.265 3.795 8.329 3.675 C 8.522 3.315,8.859 3.182,9.266 3.306 M9.438 12.105 C 9.642 12.205,9.849 12.435,9.931 12.654 C 9.981 12.787,9.993 12.874,9.985 13.050 C 9.967 13.434,9.775 13.725,9.428 13.896 C 9.255 13.981,9.197 13.994,9.000 13.994 C 8.803 13.994,8.745 13.981,8.572 13.896 C 8.225 13.725,8.033 13.434,8.015 13.050 C 8.002 12.771,8.077 12.548,8.252 12.350 C 8.478 12.093,8.727 11.991,9.072 12.014 C 9.212 12.023,9.330 12.052,9.438 12.105 " fill="#CB3434" stroke="none" fill-rule="evenodd"></path></svg>