<svg width="24" height="24" viewBox="0 0 24 24" fill="none" xmlns="http://www.w3.org/2000/svg"><path d="M8.015 3.277 C 7.946 3.294,7.838 3.345,7.775 3.391 C 7.574 3.536,5.061 6.090,4.870 6.343 C 4.192 7.240,4.089 8.035,4.591 8.488 C 4.915 8.779,4.389 8.760,12.117 8.760 C 17.059 8.760,19.106 8.747,19.219 8.715 C 19.431 8.657,19.660 8.422,19.719 8.204 C 19.808 7.873,19.689 7.566,19.394 7.372 L 19.226 7.260 12.643 7.240 L 6.060 7.220 7.466 5.800 C 8.703 4.551,8.878 4.359,8.919 4.205 C 9.006 3.879,8.888 3.564,8.612 3.385 C 8.441 3.275,8.201 3.231,8.015 3.277 " fill="#FAFAFA" stroke="none" fill-rule="evenodd"></path></svg>