<svg width="24" height="24" viewBox="0 0 24 24" fill="none" xmlns="http://www.w3.org/2000/svg"><path d="M15.817 4.137 C 15.597 4.233,15.408 4.433,15.322 4.664 C 15.240 4.882,15.240 4.924,15.240 11.972 C 15.240 16.724,15.254 19.109,15.282 19.209 C 15.460 19.849,16.348 19.936,16.671 19.345 C 16.735 19.229,16.741 18.751,16.760 12.540 L 16.780 5.860 18.200 7.266 C 19.449 8.503,19.641 8.678,19.795 8.719 C 20.365 8.871,20.870 8.366,20.720 7.795 C 20.679 7.641,20.519 7.465,19.367 6.308 C 18.018 4.954,17.627 4.606,17.168 4.352 C 16.712 4.100,16.118 4.005,15.817 4.137 " fill="#FAFAFA" stroke="none" fill-rule="evenodd"></path></svg>