<svg width="21" height="20" viewBox="0 0 21 20" fill="none" xmlns="http://www.w3.org/2000/svg"><path d="M9.893 1.088 C 8.672 1.267,7.534 2.096,6.966 3.220 C 6.812 3.524,6.630 4.073,6.595 4.334 C 6.572 4.510,6.567 4.516,6.427 4.552 C 5.872 4.694,5.491 4.856,5.069 5.128 C 4.719 5.354,4.321 5.691,4.090 5.957 C 3.258 6.912,3.038 7.567,2.663 10.203 C 2.170 13.665,2.121 14.536,2.363 15.495 C 2.576 16.333,3.193 17.275,3.910 17.851 C 4.786 18.556,5.538 18.806,7.068 18.902 C 7.902 18.955,14.064 18.926,14.508 18.868 C 14.977 18.806,15.490 18.697,15.785 18.596 C 17.236 18.099,18.443 16.678,18.711 15.152 C 18.780 14.758,18.788 13.868,18.728 13.248 C 18.621 12.145,18.213 9.228,18.057 8.453 C 17.933 7.831,17.724 7.185,17.536 6.835 C 17.079 5.988,16.279 5.242,15.383 4.828 C 15.115 4.704,14.955 4.650,14.572 4.551 C 14.429 4.515,14.426 4.510,14.402 4.331 C 14.366 4.065,14.187 3.523,14.034 3.220 C 13.467 2.096,12.385 1.302,11.148 1.102 C 10.808 1.046,10.223 1.040,9.893 1.088 M11.106 2.366 C 11.787 2.519,12.449 2.993,12.805 3.583 C 12.932 3.794,13.079 4.135,13.110 4.294 L 13.130 4.393 10.500 4.393 L 7.870 4.393 7.890 4.294 C 7.921 4.135,8.068 3.794,8.195 3.583 C 8.544 3.005,9.181 2.541,9.851 2.376 C 10.174 2.296,10.772 2.292,11.106 2.366 M14.165 6.971 C 14.416 7.138,14.515 7.454,14.401 7.726 C 14.329 7.900,14.254 7.978,14.088 8.054 C 13.955 8.115,13.771 8.119,10.508 8.119 C 6.826 8.120,6.937 8.125,6.743 7.952 C 6.647 7.867,6.547 7.633,6.546 7.492 C 6.544 7.231,6.759 6.954,7.013 6.893 C 7.073 6.878,8.675 6.869,10.573 6.872 L 14.023 6.878 14.165 6.971 " fill="#8D8D92" stroke="none" fill-rule="evenodd"></path></svg>