<svg width="29" height="28" viewBox="0 0 29 28" fill="none" xmlns="http://www.w3.org/2000/svg"><path d="M10.631 3.958 C 10.513 4.035,9.437 5.079,8.241 6.278 L 6.066 8.458 4.276 8.458 C 2.515 8.458,2.482 8.460,2.270 8.567 C 1.799 8.805,1.651 9.377,1.947 9.816 C 2.127 10.083,2.333 10.171,2.845 10.198 L 3.298 10.223 3.601 11.286 C 4.157 13.239,5.841 18.866,6.066 19.521 C 6.313 20.243,6.570 20.787,6.901 21.291 C 7.201 21.746,8.194 22.730,8.676 23.048 C 9.394 23.522,10.242 23.879,11.045 24.044 C 12.152 24.273,16.509 24.272,17.632 24.042 C 19.140 23.734,20.496 22.886,21.514 21.615 C 22.103 20.880,22.416 20.191,22.932 18.493 C 23.425 16.869,24.629 12.800,25.014 11.455 L 25.367 10.223 25.818 10.198 C 26.328 10.171,26.535 10.083,26.715 9.816 C 27.011 9.377,26.862 8.805,26.391 8.567 C 26.181 8.461,26.141 8.458,24.532 8.458 L 22.888 8.458 20.639 6.216 C 19.403 4.983,18.321 3.939,18.236 3.896 C 18.151 3.853,17.968 3.818,17.830 3.818 C 17.196 3.818,16.795 4.427,17.040 5.016 C 17.090 5.137,17.652 5.734,18.743 6.827 L 20.371 8.458 14.477 8.458 L 8.584 8.458 10.230 6.803 C 11.998 5.026,12.023 4.994,11.974 4.561 C 11.903 3.930,11.176 3.604,10.631 3.958 M12.445 13.257 C 12.553 13.318,12.685 13.451,12.746 13.558 L 12.855 13.751 12.856 16.297 C 12.856 17.981,12.839 18.890,12.805 18.980 C 12.735 19.165,12.527 19.380,12.339 19.460 C 11.972 19.617,11.497 19.468,11.271 19.126 L 11.141 18.930 11.127 16.450 C 11.112 13.867,11.122 13.711,11.318 13.462 C 11.578 13.131,12.066 13.042,12.445 13.257 M17.058 13.217 C 17.246 13.314,17.435 13.550,17.498 13.765 C 17.534 13.887,17.546 14.745,17.536 16.437 L 17.521 18.930 17.384 19.136 C 17.113 19.546,16.526 19.649,16.159 19.351 C 15.790 19.053,15.805 19.179,15.805 16.341 C 15.805 13.869,15.808 13.800,15.906 13.597 C 16.043 13.313,16.323 13.148,16.665 13.147 C 16.806 13.147,16.983 13.179,17.058 13.217 " fill="#8D8D92" stroke="none" fill-rule="evenodd"></path></svg>