<svg xmlns="http://www.w3.org/2000/svg" viewBox="0 0 24 24" fill="currentColor"><path d="M0.762 1.291 C 0.565 1.356,0.333 1.603,0.277 1.808 C 0.232 1.971,0.259 2.101,0.814 4.340 C 1.136 5.638,1.688 7.906,2.041 9.380 C 2.962 13.231,3.215 14.144,3.637 15.140 C 4.253 16.591,5.183 17.526,6.507 18.024 C 7.127 18.257,7.930 18.403,9.060 18.487 C 9.974 18.554,15.575 18.553,16.400 18.485 C 18.327 18.326,19.356 17.917,20.385 16.901 C 21.375 15.924,21.774 14.952,22.619 11.460 C 23.194 9.081,23.300 8.451,23.236 7.790 C 23.145 6.837,22.501 6.013,21.617 5.719 C 20.935 5.492,21.529 5.506,11.691 5.491 L 2.643 5.478 2.603 5.329 C 2.582 5.247,2.367 4.393,2.127 3.431 C 1.887 2.468,1.660 1.636,1.624 1.580 C 1.462 1.334,1.051 1.195,0.762 1.291 M16.388 13.367 C 16.628 13.526,16.733 13.721,16.733 14.007 C 16.733 14.203,16.714 14.271,16.616 14.409 C 16.552 14.501,16.436 14.613,16.359 14.658 C 16.222 14.739,16.173 14.740,13.000 14.740 C 9.827 14.740,9.778 14.739,9.641 14.658 C 9.564 14.613,9.448 14.501,9.384 14.409 C 9.098 14.003,9.330 13.395,9.815 13.278 C 9.884 13.261,11.354 13.250,13.083 13.254 L 16.226 13.260 16.388 13.367 M9.235 19.925 C 8.997 19.960,8.899 20.012,8.690 20.213 C 8.266 20.621,8.259 21.263,8.674 21.678 C 9.103 22.107,9.737 22.107,10.166 21.678 C 10.580 21.264,10.574 20.620,10.153 20.204 C 9.909 19.963,9.602 19.870,9.235 19.925 M15.555 19.925 C 15.231 19.973,14.983 20.148,14.823 20.441 C 14.281 21.438,15.484 22.466,16.388 21.777 C 16.564 21.643,16.748 21.314,16.781 21.076 C 16.834 20.689,16.618 20.261,16.258 20.039 C 16.092 19.936,15.799 19.888,15.555 19.925 " stroke="none" fill-rule="evenodd"></path></svg>