<svg width="24" height="24" viewBox="0 0 24 24" fill="none" xmlns="http://www.w3.org/2000/svg"><path d="M9.140 3.259 C 9.118 3.267,9.046 3.285,8.980 3.299 C 8.891 3.319,8.355 3.829,6.900 5.281 L 4.940 7.236 3.357 7.248 L 1.774 7.260 1.605 7.372 C 1.190 7.647,1.130 8.179,1.475 8.524 C 1.652 8.701,1.841 8.759,2.242 8.760 L 2.543 8.760 2.730 9.430 C 3.071 10.651,4.756 16.303,4.923 16.786 C 5.452 18.312,6.368 19.394,7.728 20.099 C 8.801 20.655,9.472 20.759,12.000 20.759 C 13.498 20.759,14.343 20.717,14.829 20.618 C 15.867 20.407,16.895 19.851,17.664 19.085 C 18.369 18.384,18.749 17.749,19.115 16.660 C 19.325 16.035,20.944 10.599,21.268 9.430 L 21.454 8.760 21.757 8.760 C 22.159 8.759,22.348 8.702,22.525 8.524 C 22.870 8.179,22.810 7.647,22.395 7.372 L 22.226 7.260 20.763 7.248 L 19.300 7.237 17.360 5.303 C 16.293 4.239,15.375 3.346,15.320 3.318 C 15.265 3.290,15.118 3.267,14.992 3.267 C 14.492 3.267,14.151 3.715,14.280 4.205 C 14.321 4.360,14.490 4.544,15.752 5.810 L 17.179 7.240 12.119 7.240 L 7.060 7.240 8.469 5.830 C 9.896 4.402,10.000 4.277,10.000 4.000 C 10.000 3.753,9.818 3.453,9.600 3.341 C 9.494 3.286,9.207 3.235,9.140 3.259 M10.405 11.381 C 10.485 11.432,10.593 11.543,10.645 11.627 L 10.740 11.780 10.740 14.007 L 10.740 16.233 10.619 16.405 C 10.453 16.641,10.273 16.739,10.000 16.739 C 9.727 16.739,9.547 16.641,9.381 16.405 L 9.260 16.233 9.260 14.007 L 9.260 11.780 9.353 11.631 C 9.586 11.256,10.044 11.147,10.405 11.381 M14.405 11.381 C 14.485 11.432,14.593 11.543,14.645 11.627 L 14.740 11.780 14.740 14.007 L 14.740 16.233 14.619 16.405 C 14.453 16.641,14.273 16.739,14.000 16.739 C 13.727 16.739,13.547 16.641,13.381 16.405 L 13.260 16.233 13.260 14.007 L 13.260 11.780 13.353 11.631 C 13.586 11.256,14.044 11.147,14.405 11.381 " fill="#FAFAFA" stroke="none" fill-rule="evenodd"></path></svg>