<svg width="32" height="32" viewBox="0 0 32 32" fill="none" xmlns="http://www.w3.org/2000/svg"><path d="M11.387 4.376 C 9.449 4.440,8.330 4.640,7.365 5.097 C 5.799 5.838,4.519 7.112,3.783 8.662 C 3.387 9.497,3.164 10.480,3.065 11.827 L 3.029 12.320 15.994 12.320 L 28.960 12.320 28.960 12.200 C 28.960 11.500,28.718 10.005,28.499 9.350 C 27.775 7.184,25.765 5.284,23.606 4.723 C 22.814 4.517,21.988 4.427,20.400 4.373 C 18.754 4.316,13.135 4.318,11.387 4.376 M3.004 17.027 C 3.048 20.405,3.123 21.320,3.448 22.453 C 3.961 24.243,5.464 25.969,7.280 26.854 C 8.088 27.249,8.951 27.450,10.400 27.584 C 11.413 27.677,20.587 27.677,21.600 27.584 C 23.049 27.450,23.911 27.249,24.720 26.855 C 26.528 25.974,28.040 24.237,28.552 22.453 C 28.876 21.321,28.951 20.410,28.995 17.027 L 29.031 14.347 16.000 14.347 L 2.969 14.347 3.004 17.027 M16.426 15.364 C 17.246 15.497,17.923 16.023,18.295 16.818 C 18.411 17.064,18.541 17.295,18.585 17.332 C 18.629 17.368,18.839 17.418,19.052 17.443 C 19.752 17.522,20.200 17.742,20.636 18.219 C 21.107 18.734,21.334 19.323,21.333 20.025 C 21.331 20.753,21.087 21.318,20.522 21.901 C 20.122 22.314,20.099 22.380,20.206 22.827 C 20.298 23.210,20.279 23.790,20.161 24.172 C 19.827 25.253,18.868 25.978,17.760 25.988 C 17.217 25.993,16.835 25.891,16.427 25.630 C 16.265 25.527,16.075 25.442,16.005 25.441 C 15.934 25.441,15.762 25.513,15.623 25.602 C 14.817 26.119,13.757 26.126,12.951 25.620 C 12.197 25.147,11.732 24.315,11.735 23.448 C 11.735 23.238,11.762 22.959,11.794 22.827 C 11.901 22.381,11.879 22.319,11.457 21.875 C 10.888 21.277,10.669 20.763,10.667 20.025 C 10.666 19.319,10.909 18.695,11.378 18.199 C 11.818 17.734,12.259 17.521,12.948 17.443 C 13.161 17.418,13.371 17.368,13.415 17.332 C 13.459 17.295,13.589 17.064,13.705 16.818 C 14.130 15.910,14.955 15.357,15.947 15.313 C 16.020 15.310,16.236 15.333,16.426 15.364 M15.748 17.557 C 15.718 17.595,15.607 17.813,15.503 18.041 C 15.117 18.881,14.408 19.407,13.493 19.529 C 12.968 19.599,12.800 19.719,12.800 20.024 C 12.800 20.171,12.852 20.252,13.100 20.488 C 13.613 20.976,13.880 21.477,13.972 22.122 C 14.019 22.458,14.012 22.559,13.885 23.364 C 13.861 23.515,13.882 23.585,13.984 23.704 C 14.152 23.899,14.311 23.894,14.641 23.685 C 15.434 23.181,16.566 23.181,17.359 23.685 C 17.689 23.894,17.848 23.899,18.016 23.704 C 18.154 23.544,18.153 23.564,18.027 22.831 C 17.886 22.011,18.208 21.146,18.900 20.488 C 19.148 20.252,19.200 20.171,19.200 20.024 C 19.200 19.719,19.032 19.599,18.507 19.529 C 17.578 19.405,16.929 18.919,16.484 18.016 L 16.240 17.520 16.022 17.504 C 15.890 17.494,15.782 17.515,15.748 17.557 " fill="#474748" stroke="none" fill-rule="evenodd"></path></svg>