<svg width="28" height="28" viewBox="0 0 28 28" fill="none" xmlns="http://www.w3.org/2000/svg"><path d="M10.233 3.550 C 7.658 3.658,6.437 4.049,5.313 5.123 C 4.090 6.291,3.692 7.414,3.548 10.103 C 3.486 11.252,3.486 16.748,3.548 17.897 C 3.691 20.566,4.086 21.696,5.281 22.846 C 5.928 23.470,6.508 23.818,7.280 24.049 C 8.532 24.422,9.679 24.499,14.000 24.499 C 18.321 24.499,19.468 24.422,20.720 24.049 C 21.492 23.818,22.072 23.470,22.719 22.846 C 23.383 22.207,23.808 21.528,24.049 20.720 C 24.422 19.468,24.499 18.321,24.499 14.000 C 24.499 9.679,24.422 8.532,24.049 7.280 C 23.804 6.460,23.374 5.779,22.687 5.123 C 21.537 4.024,20.389 3.667,17.617 3.548 C 16.391 3.495,11.506 3.497,10.233 3.550 M20.319 9.792 C 20.668 10.031,20.795 10.522,20.601 10.887 C 20.500 11.077,16.259 15.834,15.377 16.748 C 14.511 17.644,13.975 18.039,13.347 18.244 C 12.471 18.529,11.590 18.341,10.709 17.681 C 10.530 17.547,10.152 17.204,9.870 16.919 C 9.143 16.184,7.507 14.352,7.398 14.149 C 7.287 13.942,7.282 13.569,7.388 13.363 C 7.609 12.936,8.150 12.771,8.587 12.997 C 8.659 13.034,9.071 13.459,9.502 13.941 C 11.636 16.324,12.023 16.653,12.631 16.603 C 13.191 16.557,13.582 16.177,16.950 12.413 C 18.224 10.989,19.316 9.793,19.375 9.757 C 19.657 9.584,20.037 9.598,20.319 9.792 " fill="#06A937" stroke="none" fill-rule="evenodd"></path></svg>