<svg width="24" height="25" viewBox="0 0 24 25" fill="none" xmlns="http://www.w3.org/2000/svg"><path d="M11.060 2.545 C 10.658 2.586,10.024 2.694,9.640 2.787 C 5.898 3.689,2.961 6.736,2.205 10.500 C 2.054 11.250,2.021 11.609,2.021 12.500 C 2.021 13.391,2.054 13.750,2.205 14.500 C 3.012 18.516,6.277 21.675,10.327 22.358 C 14.999 23.146,19.603 20.536,21.312 16.130 C 21.797 14.880,21.979 13.889,21.979 12.500 C 21.979 11.609,21.946 11.250,21.795 10.500 C 21.049 6.787,18.192 3.780,14.500 2.821 C 13.697 2.612,13.212 2.554,12.180 2.540 C 11.652 2.534,11.148 2.536,11.060 2.545 M17.292 8.814 C 17.466 8.887,17.667 9.124,17.719 9.317 C 17.768 9.497,17.726 9.743,17.620 9.905 C 17.491 10.102,13.461 14.581,12.981 15.061 C 12.180 15.862,11.596 16.189,10.889 16.231 C 10.101 16.277,9.501 16.000,8.671 15.207 C 8.188 14.746,6.419 12.791,6.331 12.621 C 6.166 12.304,6.313 11.829,6.632 11.650 C 6.849 11.527,7.167 11.528,7.366 11.650 C 7.446 11.700,7.924 12.199,8.429 12.760 C 9.546 14.003,10.024 14.466,10.363 14.635 C 10.642 14.775,10.755 14.787,10.995 14.702 C 11.449 14.542,11.783 14.207,14.387 11.300 C 15.510 10.046,16.472 8.981,16.525 8.932 C 16.713 8.760,17.041 8.709,17.292 8.814 " fill="#8D8D92" stroke="none" fill-rule="evenodd"></path></svg>