<svg xmlns="http://www.w3.org/2000/svg" viewBox="0 0 16 16" fill="none" stroke="currentColor" stroke-width="1.5" stroke-linecap="round" stroke-linejoin="round"><path d="M13.067 3.965 C 12.962 4.001,12.544 4.409,9.807 7.143 L 6.667 10.279 5.193 8.810 C 3.861 7.481,3.707 7.336,3.589 7.297 C 2.974 7.094,2.412 7.673,2.640 8.273 C 2.688 8.399,2.868 8.588,4.473 10.194 C 6.089 11.810,6.266 11.979,6.394 12.027 C 6.574 12.094,6.760 12.094,6.939 12.027 C 7.068 11.978,7.362 11.692,10.527 8.527 C 13.673 5.381,13.978 5.068,14.027 4.940 C 14.139 4.645,14.066 4.328,13.838 4.124 C 13.622 3.929,13.341 3.872,13.067 3.965 " stroke="none" fill-rule="evenodd" fill="black"></path></svg>