<svg width="22" height="22" viewBox="0 0 22 22" fill="none" xmlns="http://www.w3.org/2000/svg"><path d="M10.367 1.176 C 7.852 1.327,5.474 2.464,3.743 4.343 C 2.374 5.830,1.527 7.642,1.223 9.735 C 1.135 10.344,1.135 11.656,1.223 12.265 C 1.528 14.363,2.372 16.166,3.751 17.666 C 5.321 19.373,7.357 20.432,9.735 20.777 C 10.344 20.865,11.656 20.865,12.265 20.777 C 14.363 20.472,16.213 19.606,17.668 18.244 C 19.407 16.618,20.431 14.649,20.777 12.265 C 20.865 11.656,20.865 10.344,20.777 9.735 C 20.398 7.124,19.166 4.941,17.149 3.306 C 15.864 2.264,14.187 1.526,12.519 1.268 C 12.195 1.218,11.039 1.129,10.890 1.142 C 10.860 1.145,10.625 1.160,10.367 1.176 M11.371 6.766 C 11.444 6.813,11.543 6.915,11.591 6.992 L 11.678 7.132 11.697 8.947 C 11.716 10.841,11.715 10.829,11.875 11.013 C 12.027 11.187,12.108 11.201,13.053 11.220 C 13.919 11.238,13.957 11.242,14.092 11.325 C 14.314 11.463,14.422 11.658,14.422 11.920 C 14.422 12.103,14.405 12.164,14.315 12.292 C 14.111 12.581,14.065 12.593,13.108 12.607 C 12.453 12.615,12.203 12.605,11.990 12.561 C 11.218 12.401,10.623 11.856,10.389 11.092 C 10.327 10.890,10.322 10.713,10.322 9.002 L 10.322 7.132 10.407 6.995 C 10.620 6.651,11.040 6.552,11.371 6.766 " fill="#A4A4A8" stroke="none" fill-rule="evenodd"></path></svg>