<svg width="20" height="20" viewBox="0 0 20 20" fill="none" xmlns="http://www.w3.org/2000/svg"><path d="M4.004 3.566 C 3.677 3.645,3.478 3.997,3.567 4.338 C 3.601 4.470,3.866 4.745,6.361 7.242 L 9.116 10.000 6.361 12.758 C 3.866 15.255,3.601 15.530,3.567 15.662 C 3.442 16.139,3.861 16.558,4.338 16.433 C 4.470 16.399,4.745 16.134,7.242 13.639 L 10.000 10.884 12.758 13.639 C 15.255 16.134,15.530 16.399,15.662 16.433 C 16.139 16.558,16.558 16.139,16.433 15.662 C 16.399 15.530,16.134 15.255,13.639 12.758 L 10.884 10.000 13.639 7.242 C 16.134 4.745,16.399 4.470,16.433 4.338 C 16.540 3.929,16.257 3.556,15.840 3.556 C 15.735 3.556,15.612 3.575,15.567 3.598 C 15.521 3.621,14.250 4.873,12.742 6.378 L 10.000 9.116 7.258 6.378 C 5.750 4.873,4.487 3.626,4.450 3.607 C 4.347 3.556,4.128 3.536,4.004 3.566 " fill="#8D8D92" stroke="none" fill-rule="evenodd"></path></svg>