<svg width="24" height="25" viewBox="0 0 24 25" fill="none" xmlns="http://www.w3.org/2000/svg"><path d="M11.060 2.545 C 10.658 2.586,10.024 2.694,9.640 2.787 C 5.898 3.689,2.961 6.736,2.205 10.500 C 2.054 11.250,2.021 11.609,2.021 12.500 C 2.021 13.391,2.054 13.750,2.205 14.500 C 3.012 18.516,6.277 21.675,10.327 22.358 C 14.999 23.146,19.603 20.536,21.312 16.130 C 21.797 14.880,21.979 13.889,21.979 12.500 C 21.979 11.609,21.946 11.250,21.795 10.500 C 21.049 6.787,18.192 3.780,14.500 2.821 C 13.697 2.612,13.212 2.554,12.180 2.540 C 11.652 2.534,11.148 2.536,11.060 2.545 M10.147 9.923 C 10.209 9.946,10.652 10.355,11.130 10.831 L 12.000 11.698 12.870 10.831 C 13.348 10.355,13.791 9.946,13.853 9.923 C 14.337 9.740,14.851 10.099,14.851 10.620 C 14.851 10.733,14.821 10.883,14.781 10.961 C 14.742 11.037,14.340 11.474,13.887 11.930 L 13.062 12.760 13.928 13.630 C 14.514 14.218,14.804 14.539,14.826 14.620 C 14.994 15.264,14.414 15.791,13.812 15.539 C 13.722 15.501,13.349 15.164,12.833 14.651 L 12.000 13.824 11.167 14.651 C 10.651 15.164,10.278 15.501,10.188 15.539 C 9.586 15.791,9.006 15.264,9.174 14.620 C 9.196 14.539,9.486 14.218,10.072 13.630 L 10.938 12.760 10.113 11.930 C 9.300 11.111,9.196 10.983,9.142 10.733 C 9.083 10.458,9.303 10.056,9.579 9.936 C 9.727 9.871,9.996 9.865,10.147 9.923 " fill="#8D8D92" stroke="none" fill-rule="evenodd"></path></svg>