<svg xmlns="http://www.w3.org/2000/svg" viewBox="0 0 21 20" fill="currentColor"><path d="M9.475 1.733 C 8.246 1.882,6.984 2.346,5.933 3.036 C 4.193 4.178,2.947 5.917,2.433 7.924 C 2.234 8.700,2.188 9.086,2.188 9.993 C 2.188 10.899,2.234 11.285,2.433 12.061 C 2.876 13.789,3.869 15.334,5.268 16.468 C 6.450 17.427,7.950 18.063,9.483 18.256 C 10.002 18.321,10.998 18.321,11.517 18.256 C 13.941 17.951,16.081 16.625,17.447 14.579 C 18.108 13.590,18.555 12.428,18.749 11.199 C 18.837 10.635,18.837 9.350,18.749 8.786 C 18.314 6.028,16.636 3.738,14.152 2.517 C 13.619 2.255,12.827 1.977,12.274 1.858 C 11.469 1.684,10.306 1.633,9.475 1.733 M9.085 4.202 C 9.199 4.222,9.391 4.270,9.511 4.309 C 9.826 4.412,13.736 6.648,13.899 6.819 C 14.098 7.028,14.110 7.341,13.928 7.573 C 13.888 7.623,12.290 8.603,10.377 9.751 C 7.491 11.483,6.872 11.841,6.742 11.856 C 6.519 11.881,6.292 11.766,6.177 11.570 L 6.090 11.421 6.090 8.947 C 6.090 6.195,6.092 6.170,6.321 5.672 C 6.594 5.082,7.090 4.608,7.691 4.364 C 7.881 4.287,7.991 4.257,8.348 4.187 C 8.492 4.158,8.885 4.166,9.085 4.202 M8.976 5.434 C 8.968 5.458,8.929 5.623,8.892 5.800 C 8.796 6.249,8.676 6.480,8.383 6.775 C 8.087 7.074,7.874 7.184,7.402 7.284 C 6.868 7.397,6.865 7.449,7.387 7.561 C 7.833 7.657,8.123 7.803,8.387 8.066 C 8.658 8.336,8.808 8.629,8.894 9.057 C 8.967 9.422,8.978 9.450,9.047 9.450 C 9.078 9.450,9.110 9.376,9.135 9.249 C 9.263 8.598,9.361 8.385,9.681 8.064 C 9.948 7.795,10.233 7.653,10.690 7.560 C 10.881 7.521,11.045 7.482,11.053 7.473 C 11.105 7.421,11.002 7.355,10.809 7.318 C 10.231 7.206,9.905 7.044,9.617 6.723 C 9.393 6.474,9.256 6.178,9.166 5.749 C 9.114 5.501,9.075 5.390,9.042 5.390 C 9.015 5.390,8.985 5.410,8.976 5.434 M14.972 8.336 C 15.164 8.455,15.236 8.660,15.236 9.083 C 15.235 9.291,15.212 9.524,15.177 9.660 C 15.099 9.965,14.909 10.347,14.735 10.544 L 14.594 10.705 14.685 10.839 C 15.146 11.514,15.248 12.477,14.935 13.213 C 14.702 13.761,14.279 14.236,13.808 14.479 C 13.493 14.640,11.204 15.640,10.936 15.732 C 10.676 15.822,10.247 15.840,9.982 15.772 C 9.441 15.633,9.001 15.280,8.776 14.805 C 8.708 14.661,8.643 14.495,8.633 14.438 C 8.623 14.380,8.605 14.273,8.593 14.201 L 8.572 14.070 8.352 14.070 C 7.822 14.070,7.096 13.762,6.947 13.475 C 6.872 13.329,6.881 13.072,6.967 12.919 C 7.054 12.763,6.629 13.032,10.913 10.426 C 14.447 8.277,14.474 8.261,14.661 8.261 C 14.794 8.260,14.885 8.282,14.972 8.336 M11.242 11.201 C 10.945 11.381,10.982 11.820,11.306 11.988 C 11.504 12.091,11.753 12.015,11.886 11.811 C 11.965 11.691,11.964 11.451,11.883 11.328 C 11.752 11.128,11.457 11.070,11.242 11.201 M12.600 11.448 C 12.460 11.506,12.357 11.623,12.318 11.767 C 12.288 11.878,12.294 11.928,12.352 12.059 C 12.489 12.368,12.890 12.432,13.104 12.178 C 13.229 12.030,13.253 11.864,13.172 11.703 C 13.059 11.475,12.806 11.362,12.600 11.448 M11.005 12.424 C 10.965 12.440,10.888 12.505,10.835 12.569 C 10.749 12.671,10.739 12.706,10.753 12.872 C 10.774 13.127,10.909 13.268,11.153 13.290 C 11.377 13.311,11.545 13.204,11.619 12.993 C 11.664 12.863,11.664 12.827,11.619 12.697 C 11.533 12.450,11.251 12.324,11.005 12.424 M12.159 12.820 C 11.842 13.110,12.045 13.604,12.478 13.594 C 12.725 13.589,12.914 13.395,12.915 13.148 C 12.915 12.882,12.728 12.705,12.445 12.705 C 12.312 12.705,12.262 12.725,12.159 12.820 " stroke="none" fill-rule="evenodd"></path></svg>