<svg width="21" height="20" viewBox="0 0 21 20" fill="none" xmlns="http://www.w3.org/2000/svg"><path d="M9.475 1.733 C 8.246 1.882,6.984 2.346,5.933 3.036 C 4.190 4.179,2.948 5.915,2.433 7.924 C 2.234 8.700,2.188 9.086,2.188 9.993 C 2.188 10.899,2.234 11.285,2.433 12.061 C 2.876 13.791,3.868 15.332,5.268 16.468 C 6.450 17.427,7.950 18.063,9.483 18.256 C 10.002 18.321,10.998 18.321,11.517 18.256 C 13.941 17.951,16.081 16.625,17.447 14.579 C 18.108 13.590,18.555 12.428,18.749 11.199 C 18.837 10.635,18.837 9.350,18.749 8.786 C 18.315 6.029,16.635 3.738,14.152 2.517 C 13.619 2.255,12.827 1.977,12.274 1.858 C 11.469 1.684,10.306 1.633,9.475 1.733 M13.549 5.413 C 13.620 5.484,13.719 5.687,13.861 6.055 C 13.982 6.366,14.107 6.633,14.159 6.687 C 14.217 6.747,14.442 6.856,14.800 6.995 C 15.443 7.245,15.541 7.321,15.566 7.588 C 15.585 7.784,15.518 7.947,15.382 8.036 C 15.335 8.067,15.057 8.185,14.764 8.298 C 14.472 8.411,14.198 8.537,14.156 8.576 C 14.114 8.616,13.988 8.888,13.877 9.181 C 13.648 9.782,13.583 9.893,13.418 9.961 C 13.265 10.025,13.145 10.023,12.996 9.952 C 12.835 9.876,12.807 9.828,12.566 9.206 C 12.453 8.912,12.325 8.635,12.282 8.589 C 12.236 8.540,11.963 8.412,11.615 8.276 C 11.162 8.098,11.010 8.022,10.958 7.949 C 10.867 7.822,10.837 7.691,10.865 7.543 C 10.904 7.334,11.030 7.227,11.402 7.085 C 12.103 6.818,12.250 6.749,12.315 6.656 C 12.351 6.604,12.470 6.327,12.580 6.039 C 12.689 5.751,12.798 5.492,12.821 5.464 C 12.995 5.253,13.363 5.227,13.549 5.413 M4.818 9.672 L 4.946 9.789 4.974 10.206 C 5.047 11.266,5.341 12.193,5.856 12.981 C 6.818 14.456,8.442 15.409,10.133 15.492 C 10.630 15.516,10.812 15.581,10.899 15.766 C 10.930 15.830,10.955 15.917,10.955 15.958 C 10.955 16.094,10.856 16.273,10.738 16.347 C 10.631 16.415,10.587 16.419,10.168 16.402 C 7.848 16.307,5.732 14.901,4.711 12.775 C 4.352 12.029,4.160 11.308,4.096 10.467 C 4.054 9.913,4.079 9.775,4.245 9.645 C 4.419 9.508,4.651 9.518,4.818 9.672 " fill="white" stroke="none" fill-rule="evenodd"></path></svg>