<svg xmlns="http://www.w3.org/2000/svg" viewBox="0 0 24 24" fill="currentColor"><path d="M7.760 2.027 C 7.131 2.046,6.303 2.125,5.886 2.205 C 4.224 2.524,3.407 3.418,3.143 5.208 C 3.029 5.979,3.001 6.977,3.001 10.180 C 3.001 14.157,3.046 15.007,3.303 15.912 C 3.475 16.520,3.686 16.893,4.077 17.281 C 4.461 17.663,4.768 17.845,5.314 18.017 C 5.667 18.127,6.385 18.268,6.419 18.234 C 6.431 18.223,6.422 18.116,6.400 17.997 C 6.302 17.456,6.280 16.489,6.280 12.740 C 6.281 8.668,6.301 7.959,6.439 7.284 C 6.640 6.302,7.195 5.713,8.140 5.482 C 8.763 5.329,9.143 5.311,12.200 5.291 C 15.131 5.272,16.508 5.304,17.133 5.404 C 17.283 5.428,17.414 5.439,17.423 5.430 C 17.454 5.399,17.319 4.706,17.215 4.361 C 16.945 3.472,16.480 2.911,15.700 2.534 C 14.796 2.098,13.718 1.996,10.140 2.009 C 9.018 2.013,7.947 2.021,7.760 2.027 M10.860 7.160 C 9.927 7.242,9.369 7.430,8.943 7.805 C 8.521 8.177,8.297 8.691,8.170 9.571 C 8.107 10.014,8.100 10.478,8.100 14.500 C 8.100 19.155,8.107 19.388,8.280 20.109 C 8.394 20.586,8.577 20.937,8.861 21.220 C 9.149 21.508,9.387 21.642,9.845 21.775 C 10.521 21.970,10.748 21.980,14.680 21.980 C 18.020 21.980,18.380 21.974,18.800 21.907 C 20.118 21.699,20.741 21.184,20.994 20.092 C 21.158 19.383,21.169 19.106,21.189 15.300 C 21.214 10.413,21.171 9.440,20.895 8.674 C 20.591 7.827,20.020 7.405,18.920 7.215 C 18.589 7.157,18.066 7.148,14.880 7.139 C 12.867 7.133,11.058 7.143,10.860 7.160 " stroke="none" fill-rule="evenodd"></path></svg>