<svg xmlns="http://www.w3.org/2000/svg" viewBox="0 0 24 24" fill="currentColor"><path d="M11.493 1.283 C 10.744 1.355,9.752 1.744,9.153 2.199 C 8.771 2.489,8.215 3.096,7.969 3.490 C 7.517 4.215,7.240 5.171,7.240 6.007 L 7.240 6.236 5.507 6.248 L 3.774 6.260 3.605 6.372 C 3.311 6.566,3.192 6.873,3.281 7.204 C 3.340 7.422,3.569 7.657,3.781 7.715 C 4.007 7.778,19.993 7.778,20.219 7.715 C 20.431 7.657,20.660 7.422,20.719 7.204 C 20.808 6.873,20.689 6.566,20.395 6.372 L 20.226 6.260 18.493 6.248 L 16.760 6.236 16.760 6.007 C 16.760 5.171,16.483 4.215,16.031 3.490 C 15.785 3.096,15.229 2.489,14.847 2.199 C 14.478 1.918,13.702 1.543,13.236 1.420 C 12.877 1.326,12.212 1.236,11.940 1.246 C 11.874 1.249,11.673 1.265,11.493 1.283 M6.069 9.039 C 5.587 9.102,5.293 9.302,5.202 9.629 C 5.149 9.823,5.148 10.347,5.202 10.747 C 5.402 12.240,5.944 16.106,6.023 16.600 C 6.217 17.811,6.392 18.441,6.745 19.197 C 7.272 20.326,8.272 21.366,9.186 21.738 C 9.742 21.964,9.934 21.980,12.000 21.980 C 13.690 21.980,13.937 21.972,14.240 21.907 C 14.956 21.752,15.493 21.439,16.123 20.805 C 16.944 19.980,17.492 18.941,17.778 17.667 C 17.916 17.048,18.012 16.426,18.444 13.340 C 18.819 10.658,18.887 9.957,18.801 9.641 C 18.736 9.401,18.517 9.188,18.239 9.095 C 18.030 9.024,17.741 9.021,12.160 9.015 C 8.937 9.012,6.196 9.023,6.069 9.039 M10.405 10.381 C 10.485 10.432,10.593 10.543,10.645 10.627 L 10.740 10.780 10.740 15.007 L 10.740 19.233 10.619 19.405 C 10.453 19.641,10.273 19.739,10.000 19.739 C 9.727 19.739,9.547 19.641,9.381 19.405 L 9.260 19.233 9.260 15.007 L 9.260 10.780 9.353 10.631 C 9.586 10.256,10.044 10.147,10.405 10.381 M14.405 10.381 C 14.485 10.432,14.593 10.543,14.645 10.627 L 14.740 10.780 14.740 15.007 L 14.740 19.233 14.619 19.405 C 14.453 19.641,14.273 19.739,14.000 19.739 C 13.727 19.739,13.547 19.641,13.381 19.405 L 13.260 19.233 13.260 15.007 L 13.260 10.780 13.353 10.631 C 13.586 10.256,14.044 10.147,14.405 10.381 " stroke="none" fill-rule="evenodd"></path></svg>