<svg xmlns="http://www.w3.org/2000/svg" viewBox="0 0 20 20" fill="currentColor"><path d="M7.309 2.536 C 5.470 2.613,4.598 2.892,3.795 3.659 C 2.922 4.493,2.637 5.296,2.534 7.217 C 2.490 8.037,2.490 11.963,2.534 12.783 C 2.636 14.690,2.919 15.497,3.772 16.319 C 4.234 16.764,4.648 17.013,5.200 17.178 C 6.094 17.444,6.913 17.499,10.000 17.499 C 13.087 17.499,13.906 17.444,14.800 17.178 C 15.352 17.013,15.766 16.764,16.228 16.319 C 16.702 15.862,17.005 15.377,17.178 14.800 C 17.442 13.915,17.499 13.080,17.500 10.130 L 17.500 8.143 16.808 8.124 C 15.801 8.096,15.239 7.971,14.523 7.613 C 13.172 6.937,12.206 5.642,11.953 4.164 C 11.925 4.006,11.893 3.567,11.880 3.189 L 11.856 2.500 9.887 2.505 C 8.803 2.508,7.643 2.522,7.309 2.536 M13.142 3.242 C 13.154 3.789,13.170 3.965,13.226 4.173 C 13.588 5.500,14.500 6.412,15.827 6.774 C 16.035 6.830,16.211 6.846,16.764 6.858 L 17.444 6.874 17.423 6.579 C 17.350 5.556,17.082 4.716,16.647 4.146 C 16.108 3.439,15.416 2.976,14.588 2.767 C 14.239 2.679,13.483 2.567,13.237 2.567 L 13.126 2.567 13.142 3.242 M9.477 6.129 C 9.679 6.255,9.778 6.432,9.778 6.669 C 9.778 6.836,9.762 6.892,9.680 7.008 C 9.626 7.084,9.530 7.178,9.466 7.215 C 9.354 7.281,9.301 7.283,7.917 7.283 C 6.532 7.283,6.479 7.281,6.367 7.215 C 6.303 7.178,6.207 7.084,6.153 7.008 C 5.915 6.669,6.107 6.164,6.512 6.064 C 6.570 6.050,7.232 6.041,7.983 6.044 L 9.350 6.050 9.477 6.129 M13.644 9.462 C 13.846 9.588,13.944 9.765,13.944 10.003 C 13.944 10.169,13.928 10.225,13.847 10.341 C 13.793 10.418,13.697 10.511,13.633 10.548 C 13.518 10.616,13.484 10.617,10.000 10.617 C 6.516 10.617,6.482 10.616,6.367 10.548 C 6.303 10.511,6.207 10.418,6.153 10.341 C 5.915 10.003,6.108 9.496,6.512 9.398 C 6.570 9.384,8.169 9.375,10.067 9.378 L 13.517 9.383 13.644 9.462 M9.477 12.796 C 9.679 12.921,9.778 13.099,9.778 13.336 C 9.778 13.503,9.762 13.558,9.680 13.674 C 9.626 13.751,9.530 13.844,9.466 13.882 C 9.354 13.948,9.301 13.950,7.917 13.950 C 6.532 13.950,6.479 13.948,6.367 13.882 C 6.303 13.844,6.207 13.751,6.153 13.674 C 5.915 13.336,6.107 12.831,6.512 12.731 C 6.570 12.717,7.232 12.708,7.983 12.711 L 9.350 12.717 9.477 12.796 " stroke="none" fill-rule="evenodd"></path></svg>