<svg width="24" height="24" viewBox="0 0 24 24" fill="none" xmlns="http://www.w3.org/2000/svg"><path d="M11.811 2.278 C 11.639 2.320,11.417 2.493,11.330 2.652 C 11.265 2.770,11.259 3.016,11.249 5.886 L 11.238 8.993 9.269 9.011 C 7.461 9.028,7.272 9.036,6.960 9.111 C 5.986 9.345,5.213 9.759,4.538 10.406 C 3.832 11.085,3.373 11.895,3.115 12.920 C 3.022 13.291,3.020 13.341,3.020 15.000 C 3.020 16.659,3.022 16.709,3.115 17.080 C 3.373 18.104,3.833 18.918,4.536 19.590 C 5.244 20.268,5.995 20.665,7.020 20.905 C 7.323 20.976,7.586 20.980,12.000 20.980 C 16.414 20.980,16.677 20.976,16.980 20.905 C 18.045 20.656,18.800 20.245,19.522 19.522 C 20.245 18.800,20.656 18.045,20.905 16.980 C 20.972 16.694,20.980 16.482,20.980 15.000 C 20.980 13.518,20.972 13.306,20.905 13.020 C 20.738 12.305,20.450 11.637,20.090 11.124 C 19.831 10.756,19.198 10.131,18.840 9.892 C 18.275 9.514,17.727 9.276,17.040 9.111 C 16.728 9.036,16.539 9.028,14.731 9.011 L 12.762 8.993 12.751 5.886 C 12.740 2.838,12.738 2.777,12.658 2.641 C 12.494 2.361,12.122 2.202,11.811 2.278 M12.760 12.387 L 12.760 15.774 12.864 15.677 C 13.022 15.530,13.569 14.863,14.575 13.592 C 15.147 12.870,15.538 12.411,15.632 12.353 C 15.832 12.229,16.170 12.230,16.374 12.356 C 16.658 12.532,16.796 12.860,16.718 13.173 C 16.670 13.364,16.628 13.419,15.178 15.240 C 13.900 16.843,13.514 17.237,12.940 17.522 C 12.316 17.831,11.684 17.831,11.060 17.522 C 10.486 17.237,10.100 16.843,8.822 15.240 C 7.339 13.378,7.329 13.365,7.279 13.155 C 7.204 12.845,7.340 12.533,7.626 12.356 C 7.830 12.230,8.168 12.229,8.369 12.353 C 8.464 12.412,8.845 12.859,9.409 13.573 C 10.366 14.784,11.015 15.574,11.154 15.696 L 11.240 15.772 11.240 12.386 L 11.240 9.000 12.000 9.000 L 12.760 9.000 12.760 12.387 " fill="#FAFAFA" stroke="none" fill-rule="evenodd"></path></svg>