<svg width="24" height="24" viewBox="0 0 24 24" fill="none" xmlns="http://www.w3.org/2000/svg"><path d="M8.771 3.043 C 6.564 3.136,5.517 3.470,4.554 4.391 C 3.506 5.392,3.165 6.355,3.041 8.660 C 2.988 9.644,2.988 14.356,3.041 15.340 C 3.164 17.628,3.503 18.596,4.527 19.583 C 5.081 20.117,5.578 20.416,6.240 20.613 C 7.313 20.933,8.296 20.999,12.000 20.999 C 15.704 20.999,16.687 20.933,17.760 20.613 C 18.422 20.416,18.919 20.117,19.473 19.583 C 20.043 19.034,20.407 18.452,20.613 17.760 C 20.933 16.687,20.999 15.704,20.999 12.000 C 20.999 8.296,20.933 7.313,20.613 6.240 C 20.404 5.538,20.035 4.953,19.446 4.391 C 18.460 3.449,17.477 3.143,15.100 3.041 C 14.050 2.996,9.863 2.997,8.771 3.043 M7.340 9.330 C 7.384 9.352,8.176 10.121,9.100 11.038 C 10.770 12.696,11.137 13.018,11.521 13.164 C 11.786 13.265,12.214 13.265,12.479 13.164 C 12.865 13.017,13.228 12.698,14.920 11.016 C 16.105 9.838,16.656 9.316,16.740 9.294 C 17.100 9.198,17.437 9.317,17.629 9.607 C 17.766 9.813,17.775 10.162,17.649 10.364 C 17.495 10.613,14.206 13.842,13.851 14.094 C 13.169 14.576,12.711 14.735,12.000 14.735 C 11.289 14.735,10.831 14.576,10.149 14.094 C 9.794 13.842,6.505 10.613,6.351 10.364 C 6.246 10.195,6.237 9.838,6.333 9.652 C 6.415 9.495,6.638 9.320,6.811 9.278 C 6.956 9.243,7.219 9.268,7.340 9.330 " fill="#FAFAFA" stroke="none" fill-rule="evenodd"></path></svg>