<svg width="24" height="24" viewBox="0 0 24 24" fill="none" xmlns="http://www.w3.org/2000/svg"><path d="M11.811 2.278 C 11.639 2.320,11.417 2.493,11.330 2.652 C 11.265 2.772,11.259 3.117,11.249 8.010 L 11.239 13.240 10.162 13.240 C 9.033 13.240,8.611 13.276,8.230 13.404 C 7.607 13.613,6.970 14.177,6.681 14.774 C 6.286 15.590,6.291 16.504,6.695 17.265 C 6.868 17.590,9.792 21.394,10.105 21.700 C 11.154 22.727,12.846 22.727,13.895 21.700 C 14.208 21.394,17.132 17.590,17.305 17.265 C 17.709 16.504,17.714 15.590,17.319 14.774 C 17.030 14.177,16.393 13.613,15.770 13.404 C 15.389 13.276,14.967 13.240,13.838 13.240 L 12.761 13.240 12.751 8.010 C 12.740 2.821,12.739 2.779,12.658 2.641 C 12.494 2.361,12.122 2.202,11.811 2.278 " fill="#FAFAFA" stroke="none" fill-rule="evenodd"></path></svg>