<svg width="24" height="24" viewBox="0 0 24 24" fill="none" xmlns="http://www.w3.org/2000/svg"><path d="M6.811 9.278 C 6.638 9.320,6.416 9.494,6.332 9.652 C 6.245 9.816,6.243 10.181,6.329 10.340 C 6.442 10.551,9.786 13.836,10.149 14.094 C 10.831 14.576,11.289 14.735,12.000 14.735 C 12.711 14.735,13.169 14.576,13.851 14.094 C 14.214 13.836,17.558 10.551,17.671 10.340 C 17.765 10.166,17.758 9.812,17.657 9.640 C 17.531 9.424,17.288 9.273,17.055 9.267 C 16.948 9.265,16.806 9.277,16.740 9.294 C 16.656 9.316,16.105 9.838,14.920 11.016 C 13.228 12.698,12.865 13.017,12.479 13.164 C 12.214 13.265,11.786 13.265,11.521 13.164 C 11.137 13.018,10.770 12.696,9.100 11.038 C 8.176 10.121,7.384 9.352,7.340 9.330 C 7.219 9.268,6.956 9.243,6.811 9.278 " fill="#FAFAFA" stroke="none" fill-rule="evenodd"></path></svg>