<svg width="24" height="24" viewBox="0 0 24 24" fill="none" xmlns="http://www.w3.org/2000/svg"><path d="M11.811 3.278 C 11.639 3.320,11.417 3.493,11.330 3.652 C 11.264 3.772,11.259 4.231,11.250 11.390 C 11.244 15.575,11.228 19.000,11.215 19.000 C 11.114 19.000,10.553 18.479,9.100 17.037 C 8.176 16.121,7.375 15.347,7.320 15.319 C 7.265 15.290,7.116 15.267,6.989 15.267 C 6.568 15.267,6.260 15.577,6.263 16.000 C 6.263 16.124,6.292 16.273,6.329 16.340 C 6.442 16.551,9.786 19.836,10.149 20.094 C 10.831 20.576,11.289 20.735,12.000 20.735 C 12.711 20.735,13.169 20.576,13.851 20.094 C 14.214 19.836,17.558 16.551,17.671 16.340 C 17.765 16.166,17.758 15.812,17.657 15.640 C 17.531 15.424,17.288 15.273,17.055 15.267 C 16.948 15.265,16.806 15.277,16.740 15.294 C 16.656 15.316,16.104 15.839,14.920 17.015 C 13.450 18.476,12.886 19.000,12.785 19.000 C 12.772 19.000,12.756 15.575,12.750 11.390 C 12.740 3.802,12.740 3.780,12.658 3.641 C 12.494 3.361,12.122 3.202,11.811 3.278 " fill="#FAFAFA" stroke="none" fill-rule="evenodd"></path></svg>