<svg width="24" height="24" viewBox="0 0 24 24" fill="none" xmlns="http://www.w3.org/2000/svg"><path d="M8.771 3.043 C 6.564 3.136,5.517 3.470,4.554 4.391 C 3.506 5.392,3.165 6.355,3.041 8.660 C 2.988 9.644,2.988 14.356,3.041 15.340 C 3.164 17.628,3.503 18.596,4.527 19.583 C 5.081 20.117,5.578 20.416,6.240 20.613 C 7.313 20.933,8.296 20.999,12.000 20.999 C 15.704 20.999,16.687 20.933,17.760 20.613 C 18.422 20.416,18.919 20.117,19.473 19.583 C 20.043 19.034,20.407 18.452,20.613 17.760 C 20.933 16.687,20.999 15.704,20.999 12.000 C 20.999 8.296,20.933 7.313,20.613 6.240 C 20.404 5.538,20.035 4.953,19.446 4.391 C 18.460 3.449,17.477 3.143,15.100 3.041 C 14.050 2.996,9.863 2.997,8.771 3.043 M12.405 7.381 C 12.485 7.432,12.593 7.543,12.645 7.627 L 12.740 7.780 12.760 11.360 L 12.780 14.940 14.200 13.533 C 15.177 12.565,15.657 12.116,15.740 12.094 C 16.104 11.997,16.458 12.126,16.642 12.423 C 16.765 12.623,16.769 12.972,16.649 13.164 C 16.533 13.350,13.959 15.902,13.657 16.130 C 13.066 16.577,12.630 16.736,12.000 16.736 C 11.370 16.736,10.934 16.577,10.343 16.130 C 10.041 15.902,7.467 13.350,7.351 13.164 C 7.291 13.068,7.267 12.963,7.267 12.800 C 7.267 12.520,7.357 12.348,7.591 12.184 C 7.729 12.087,7.798 12.067,7.989 12.067 C 8.116 12.067,8.265 12.090,8.320 12.119 C 8.375 12.147,9.050 12.794,9.820 13.555 L 11.220 14.940 11.240 11.360 L 11.260 7.780 11.353 7.631 C 11.586 7.256,12.044 7.147,12.405 7.381 " fill="#FAFAFA" stroke="none" fill-rule="evenodd"></path></svg>