<svg width="24" height="24" viewBox="0 0 24 24" fill="none" xmlns="http://www.w3.org/2000/svg"><path d="M11.120 2.039 C 9.316 2.220,7.707 2.807,6.280 3.806 C 2.738 6.286,1.178 10.759,2.422 14.865 C 2.918 16.499,3.728 17.850,4.939 19.061 C 5.928 20.050,7.038 20.788,8.272 21.278 C 11.634 22.610,15.313 22.080,18.200 19.845 C 18.637 19.507,19.507 18.637,19.845 18.200 C 21.255 16.379,22.000 14.234,22.000 12.000 C 22.000 7.432,18.842 3.387,14.430 2.303 C 13.446 2.062,12.028 1.948,11.120 2.039 M12.405 7.381 C 12.485 7.432,12.593 7.543,12.645 7.627 L 12.740 7.780 12.760 11.360 L 12.780 14.940 14.200 13.533 C 15.177 12.565,15.657 12.116,15.740 12.094 C 16.104 11.997,16.458 12.126,16.642 12.423 C 16.765 12.623,16.769 12.972,16.649 13.164 C 16.533 13.350,13.959 15.902,13.657 16.130 C 13.066 16.577,12.630 16.736,12.000 16.736 C 11.370 16.736,10.934 16.577,10.343 16.130 C 10.041 15.902,7.467 13.350,7.351 13.164 C 7.291 13.068,7.267 12.963,7.267 12.800 C 7.267 12.520,7.357 12.348,7.591 12.184 C 7.729 12.087,7.798 12.067,7.989 12.067 C 8.116 12.067,8.265 12.090,8.320 12.119 C 8.375 12.147,9.050 12.794,9.820 13.555 L 11.220 14.940 11.240 11.360 L 11.260 7.780 11.353 7.631 C 11.586 7.256,12.044 7.147,12.405 7.381 " fill="#FAFAFA" stroke="none" fill-rule="evenodd"></path></svg>