<svg width="24" height="24" viewBox="0 0 24 24" fill="none" xmlns="http://www.w3.org/2000/svg"><path d="M11.120 2.039 C 9.316 2.220,7.707 2.807,6.280 3.806 C 2.738 6.286,1.178 10.759,2.422 14.865 C 2.918 16.499,3.728 17.850,4.939 19.061 C 5.928 20.050,7.038 20.788,8.272 21.278 C 11.634 22.610,15.313 22.080,18.200 19.845 C 18.637 19.507,19.507 18.637,19.845 18.200 C 21.255 16.379,22.000 14.234,22.000 12.000 C 22.000 7.432,18.842 3.387,14.430 2.303 C 13.446 2.062,12.028 1.948,11.120 2.039 M7.340 9.330 C 7.384 9.352,8.176 10.121,9.100 11.038 C 10.770 12.696,11.137 13.018,11.521 13.164 C 11.786 13.265,12.214 13.265,12.479 13.164 C 12.865 13.017,13.228 12.698,14.920 11.016 C 16.105 9.838,16.656 9.316,16.740 9.294 C 17.100 9.198,17.437 9.317,17.629 9.607 C 17.766 9.813,17.775 10.162,17.649 10.364 C 17.495 10.613,14.206 13.842,13.851 14.094 C 13.169 14.576,12.711 14.735,12.000 14.735 C 11.289 14.735,10.831 14.576,10.149 14.094 C 9.794 13.842,6.505 10.613,6.351 10.364 C 6.246 10.195,6.237 9.838,6.333 9.652 C 6.415 9.495,6.638 9.320,6.811 9.278 C 6.956 9.243,7.219 9.268,7.340 9.330 " fill="#FAFAFA" stroke="none" fill-rule="evenodd"></path></svg>