<svg xmlns="http://www.w3.org/2000/svg" viewBox="0 0 20 20" fill="currentColor"><path d="M4.713 1.901 C 4.418 1.941,4.247 1.992,3.989 2.120 C 3.395 2.413,2.955 2.952,2.779 3.600 C 2.699 3.893,2.700 4.442,2.779 4.733 C 3.002 5.545,3.622 6.165,4.433 6.387 C 4.577 6.427,4.768 6.447,5.000 6.447 C 5.389 6.447,5.656 6.389,5.986 6.232 C 6.275 6.094,6.602 5.831,6.799 5.575 C 7.135 5.140,7.280 4.715,7.280 4.167 C 7.280 3.620,7.135 3.193,6.801 2.760 C 6.321 2.139,5.488 1.796,4.713 1.901 M9.842 3.565 C 9.613 3.621,9.430 3.822,9.383 4.071 C 9.331 4.350,9.542 4.686,9.817 4.763 C 10.004 4.815,16.663 4.815,16.849 4.763 C 17.026 4.714,17.217 4.518,17.266 4.337 C 17.340 4.061,17.241 3.805,16.995 3.643 L 16.855 3.550 13.402 3.545 C 11.504 3.542,9.901 3.551,9.842 3.565 M14.713 7.734 C 13.946 7.838,13.284 8.306,12.954 8.980 C 12.780 9.336,12.720 9.595,12.720 10.000 C 12.720 10.552,12.890 11.038,13.225 11.443 C 13.681 11.993,14.289 12.280,15.000 12.280 C 15.389 12.280,15.656 12.222,15.986 12.065 C 16.577 11.784,17.042 11.220,17.221 10.567 C 17.301 10.274,17.301 9.726,17.221 9.433 C 16.914 8.314,15.835 7.583,14.713 7.734 M3.175 9.399 C 2.946 9.454,2.763 9.656,2.717 9.904 C 2.664 10.184,2.875 10.520,3.151 10.596 C 3.337 10.648,9.996 10.648,10.183 10.596 C 10.359 10.547,10.550 10.352,10.599 10.170 C 10.673 9.894,10.574 9.639,10.329 9.476 L 10.188 9.383 6.736 9.378 C 4.837 9.375,3.235 9.384,3.175 9.399 M4.713 13.568 C 4.418 13.607,4.247 13.659,3.989 13.787 C 3.395 14.080,2.955 14.618,2.779 15.267 C 2.699 15.559,2.700 16.109,2.779 16.400 C 3.002 17.211,3.625 17.835,4.433 18.054 C 4.726 18.134,5.275 18.134,5.567 18.054 C 6.378 17.832,6.998 17.212,7.221 16.400 C 7.260 16.256,7.280 16.066,7.280 15.833 C 7.280 15.286,7.135 14.860,6.801 14.427 C 6.321 13.806,5.488 13.463,4.713 13.568 M9.842 15.232 C 9.613 15.287,9.430 15.489,9.383 15.738 C 9.331 16.017,9.542 16.353,9.817 16.429 C 10.004 16.481,16.663 16.481,16.849 16.429 C 17.026 16.380,17.217 16.185,17.266 16.003 C 17.340 15.727,17.241 15.472,16.995 15.310 L 16.855 15.217 13.402 15.211 C 11.504 15.208,9.901 15.218,9.842 15.232 " stroke="none" fill-rule="evenodd"></path></svg>