<svg width="24" height="24" viewBox="0 0 24 24" fill="none" xmlns="http://www.w3.org/2000/svg"><path d="M16.257 0.278 C 15.229 0.300,15.212 0.301,15.069 0.399 C 14.918 0.503,14.790 0.698,14.743 0.894 C 14.705 1.057,14.817 1.403,14.949 1.529 C 15.193 1.763,15.161 1.760,17.534 1.760 C 19.481 1.760,20.454 1.794,20.572 1.867 C 20.592 1.880,18.206 4.296,15.269 7.235 C 12.331 10.175,9.899 12.638,9.864 12.708 C 9.786 12.864,9.781 13.158,9.854 13.332 C 9.927 13.506,10.164 13.707,10.358 13.759 C 10.503 13.798,10.575 13.794,10.820 13.732 C 10.864 13.721,13.325 11.289,16.288 8.328 C 19.252 5.366,21.685 2.952,21.694 2.962 C 21.767 3.037,21.800 3.955,21.801 5.960 C 21.802 8.072,21.807 8.231,21.876 8.380 C 22.168 9.014,23.043 8.972,23.262 8.313 C 23.320 8.140,23.325 7.850,23.308 5.689 C 23.288 3.063,23.280 2.949,23.056 2.270 C 22.752 1.349,21.889 0.607,20.880 0.399 C 20.177 0.254,18.968 0.222,16.257 0.278 " fill="#FAFAFA" stroke="none" fill-rule="evenodd"></path></svg>