<svg xmlns="http://www.w3.org/2000/svg" viewBox="0 0 20 20" fill="currentColor"><path d="M13.547 0.232 C 12.690 0.250,12.677 0.251,12.558 0.333 C 12.432 0.419,12.325 0.582,12.286 0.745 C 12.254 0.881,12.347 1.169,12.457 1.274 C 12.661 1.469,12.634 1.467,14.612 1.467 C 16.234 1.467,17.045 1.495,17.143 1.556 C 17.160 1.567,15.172 3.580,12.724 6.029 C 10.276 8.479,8.249 10.531,8.220 10.590 C 8.155 10.720,8.151 10.965,8.212 11.110 C 8.272 11.255,8.470 11.423,8.632 11.466 C 8.752 11.499,8.813 11.495,9.017 11.444 C 9.053 11.434,11.104 9.408,13.574 6.940 C 16.043 4.472,18.071 2.460,18.079 2.468 C 18.139 2.531,18.167 3.296,18.167 4.967 C 18.168 6.726,18.172 6.859,18.230 6.983 C 18.474 7.512,19.203 7.477,19.385 6.927 C 19.433 6.783,19.437 6.541,19.424 4.741 C 19.407 2.553,19.400 2.458,19.213 1.892 C 18.960 1.124,18.241 0.506,17.400 0.332 C 16.814 0.211,15.807 0.185,13.547 0.232 M6.350 2.904 C 4.349 2.998,3.339 3.358,2.413 4.307 C 1.474 5.268,1.159 6.232,1.067 8.434 C 1.025 9.443,1.025 12.523,1.067 13.533 C 1.163 15.815,1.493 16.779,2.521 17.768 C 3.418 18.631,4.316 18.952,6.150 19.066 C 6.842 19.110,11.491 19.110,12.183 19.066 C 13.673 18.974,14.569 18.727,15.295 18.210 C 15.840 17.821,16.420 17.157,16.683 16.617 C 17.186 15.588,17.298 14.571,17.299 11.031 C 17.300 9.106,17.295 9.057,17.086 8.873 C 16.782 8.607,16.359 8.660,16.130 8.994 L 16.050 9.112 16.029 11.531 C 16.017 12.964,15.993 14.099,15.970 14.317 C 15.825 15.697,15.601 16.245,14.916 16.896 C 14.034 17.734,13.253 17.866,9.167 17.866 C 5.583 17.866,4.643 17.757,3.845 17.249 C 3.589 17.086,3.077 16.572,2.905 16.305 C 2.563 15.773,2.404 15.073,2.334 13.783 C 2.291 13.002,2.291 9.034,2.333 8.217 C 2.403 6.872,2.564 6.177,2.932 5.635 C 3.362 5.002,3.983 4.552,4.678 4.370 C 5.412 4.178,6.187 4.132,8.847 4.121 C 10.965 4.113,10.985 4.112,11.122 4.040 C 11.379 3.907,11.516 3.597,11.436 3.329 C 11.381 3.147,11.188 2.952,11.016 2.904 C 10.861 2.861,7.258 2.861,6.350 2.904 " stroke="none" fill-rule="evenodd"></path></svg>