<svg width="32" height="32" viewBox="0 0 32 32" fill="none" xmlns="http://www.w3.org/2000/svg"><path d="M12.242 5.393 C 11.781 5.460,11.393 5.581,10.888 5.817 C 9.030 6.684,7.904 8.560,8.016 10.603 C 8.131 12.710,9.506 14.465,11.547 15.109 C 14.193 15.943,17.063 14.368,17.813 11.671 C 18.150 10.456,18.022 9.213,17.440 8.053 C 16.496 6.174,14.365 5.083,12.242 5.393 M18.962 5.389 C 18.606 5.445,18.201 5.556,17.779 5.714 L 17.496 5.820 17.870 6.282 C 18.735 7.351,19.182 8.436,19.308 9.772 C 19.469 11.478,18.875 13.281,17.736 14.547 L 17.484 14.826 17.742 14.938 C 18.361 15.205,18.751 15.273,19.680 15.274 C 20.486 15.274,20.600 15.262,21.029 15.130 C 21.874 14.870,22.503 14.506,23.113 13.923 C 23.754 13.310,24.195 12.580,24.459 11.695 C 24.649 11.059,24.695 10.035,24.562 9.383 C 24.169 7.442,22.751 5.963,20.827 5.488 C 20.330 5.366,19.419 5.317,18.962 5.389 M17.947 16.059 C 20.417 16.415,22.520 18.325,23.149 20.783 C 23.568 22.420,23.237 24.435,22.333 25.752 L 22.174 25.984 23.367 25.961 C 24.471 25.940,24.595 25.927,25.029 25.795 C 25.921 25.524,26.646 25.085,27.257 24.446 C 27.839 23.836,28.204 23.207,28.463 22.362 C 28.593 21.937,28.607 21.812,28.610 21.013 C 28.613 20.249,28.597 20.078,28.491 19.712 C 28.012 18.059,26.825 16.801,25.245 16.272 C 24.481 16.017,24.197 16.000,20.806 16.007 C 18.781 16.011,17.743 16.030,17.947 16.059 M8.293 17.392 C 6.426 17.659,4.808 19.034,4.248 20.834 C 3.362 23.674,5.114 26.636,8.028 27.224 C 8.404 27.300,9.001 27.309,13.173 27.295 L 17.893 27.280 18.362 27.133 C 19.215 26.865,19.839 26.503,20.446 25.923 C 21.084 25.313,21.522 24.591,21.796 23.695 C 21.927 23.270,21.940 23.145,21.943 22.347 C 21.946 21.582,21.931 21.411,21.825 21.046 C 21.346 19.392,20.159 18.134,18.579 17.605 C 17.786 17.341,17.625 17.333,12.966 17.340 C 10.572 17.343,8.469 17.367,8.293 17.392 " fill="#474748" stroke="none" fill-rule="evenodd"></path></svg>