<svg width="21" height="20" viewBox="0 0 21 20" fill="none" xmlns="http://www.w3.org/2000/svg"><path d="M9.475 1.733 C 8.246 1.882,6.984 2.346,5.933 3.036 C 4.190 4.179,2.948 5.915,2.433 7.924 C 2.234 8.700,2.188 9.086,2.188 9.993 C 2.188 10.899,2.234 11.285,2.433 12.061 C 3.035 14.410,4.630 16.374,6.808 17.448 C 8.006 18.039,9.141 18.305,10.467 18.307 C 11.846 18.309,12.972 18.049,14.193 17.448 C 15.525 16.791,16.607 15.837,17.447 14.579 C 18.108 13.590,18.555 12.428,18.749 11.199 C 18.837 10.635,18.837 9.350,18.749 8.786 C 18.315 6.029,16.635 3.738,14.152 2.517 C 13.619 2.255,12.827 1.977,12.274 1.858 C 11.469 1.684,10.306 1.633,9.475 1.733 M10.911 5.951 C 11.413 6.239,11.471 6.891,11.030 7.289 C 10.641 7.641,10.009 7.513,9.763 7.032 C 9.562 6.637,9.702 6.173,10.089 5.951 C 10.241 5.864,10.311 5.846,10.500 5.846 C 10.689 5.846,10.759 5.864,10.911 5.951 M10.763 8.606 C 10.840 8.641,10.932 8.703,10.967 8.743 C 11.126 8.921,11.127 8.939,11.128 11.638 C 11.129 13.292,11.117 14.238,11.093 14.323 C 10.928 14.918,10.072 14.918,9.907 14.323 C 9.883 14.238,9.871 13.292,9.872 11.638 C 9.873 8.939,9.874 8.921,10.033 8.743 C 10.123 8.641,10.354 8.542,10.500 8.542 C 10.567 8.542,10.686 8.570,10.763 8.606 " fill="#8D8D92" stroke="none" fill-rule="evenodd"></path></svg>