<svg width="24" height="24" viewBox="0 0 24 24" fill="none" xmlns="http://www.w3.org/2000/svg"><path d="M11.120 2.039 C 9.316 2.220,7.707 2.807,6.280 3.806 C 2.738 6.286,1.178 10.759,2.422 14.865 C 2.918 16.499,3.728 17.850,4.939 19.061 C 5.928 20.050,7.038 20.788,8.272 21.278 C 11.634 22.610,15.313 22.080,18.200 19.845 C 18.637 19.507,19.507 18.637,19.845 18.200 C 21.255 16.379,22.000 14.234,22.000 12.000 C 22.000 7.432,18.842 3.387,14.430 2.303 C 13.446 2.062,12.028 1.948,11.120 2.039 M14.405 6.381 C 14.624 6.522,14.733 6.727,14.733 6.996 C 14.733 7.119,14.710 7.265,14.681 7.320 C 14.653 7.375,13.879 8.176,12.962 9.100 C 11.304 10.770,10.982 11.137,10.836 11.521 C 10.735 11.786,10.735 12.214,10.836 12.479 C 10.982 12.863,11.304 13.230,12.962 14.900 C 13.879 15.824,14.653 16.625,14.681 16.680 C 14.710 16.735,14.733 16.884,14.733 17.011 C 14.733 17.432,14.423 17.740,14.000 17.737 C 13.876 17.737,13.728 17.708,13.660 17.671 C 13.467 17.567,10.244 14.299,9.965 13.924 C 9.459 13.245,9.270 12.723,9.269 12.000 C 9.267 11.283,9.457 10.759,9.965 10.076 C 10.201 9.758,13.318 6.576,13.575 6.391 C 13.811 6.220,14.150 6.216,14.405 6.381 " fill="#FAFAFA" stroke="none" fill-rule="evenodd"></path></svg>