<svg width="24" height="24" viewBox="0 0 24 24" fill="none" xmlns="http://www.w3.org/2000/svg"><path d="M7.815 6.277 C 7.746 6.294,7.638 6.345,7.575 6.390 C 7.512 6.436,6.713 7.226,5.800 8.146 C 4.099 9.860,3.818 10.185,3.540 10.749 C 3.331 11.174,3.265 11.475,3.265 12.000 C 3.265 12.525,3.331 12.826,3.540 13.251 C 3.822 13.824,4.092 14.133,5.879 15.928 C 7.440 17.495,7.638 17.680,7.795 17.720 C 8.368 17.869,8.871 17.365,8.719 16.795 C 8.678 16.640,8.484 16.430,7.005 14.940 C 5.548 13.472,5.000 12.884,5.000 12.786 C 5.000 12.772,8.388 12.760,12.530 12.760 C 17.900 12.760,20.106 12.747,20.219 12.715 C 20.431 12.657,20.660 12.422,20.719 12.204 C 20.808 11.873,20.689 11.566,20.394 11.372 L 20.226 11.260 12.613 11.249 C 8.426 11.244,5.000 11.227,5.000 11.213 C 5.000 11.116,5.550 10.525,7.005 9.060 C 8.484 7.570,8.678 7.360,8.719 7.205 C 8.806 6.879,8.688 6.564,8.412 6.385 C 8.241 6.275,8.001 6.231,7.815 6.277 " fill="#FAFAFA" stroke="none" fill-rule="evenodd"></path></svg>