<svg width="24" height="24" viewBox="0 0 24 24" fill="none" xmlns="http://www.w3.org/2000/svg"><path d="M7.791 6.039 C 7.501 6.091,7.203 6.196,6.960 6.330 C 6.631 6.511,2.860 9.418,2.560 9.721 C 2.417 9.866,2.240 10.086,2.167 10.209 C 1.871 10.710,1.733 11.365,1.805 11.940 C 1.883 12.574,2.124 13.077,2.560 13.519 C 2.828 13.791,6.552 16.675,6.903 16.883 C 7.011 16.948,7.244 17.048,7.420 17.107 C 7.692 17.198,7.812 17.214,8.220 17.217 C 8.617 17.219,8.752 17.204,9.000 17.126 C 9.896 16.847,10.566 16.210,10.861 15.359 L 10.978 15.020 10.992 13.690 L 11.006 12.360 16.210 12.360 L 21.415 12.360 21.590 12.275 C 21.850 12.149,21.980 11.931,21.980 11.620 C 21.980 11.309,21.850 11.091,21.590 10.965 L 21.415 10.880 16.210 10.880 L 11.006 10.880 10.992 9.550 L 10.978 8.220 10.861 7.881 C 10.488 6.804,9.498 6.067,8.361 6.020 C 8.151 6.011,7.895 6.020,7.791 6.039 " fill="#FAFAFA" stroke="none" fill-rule="evenodd"></path></svg>