<svg width="24" height="24" viewBox="0 0 24 24" fill="none" xmlns="http://www.w3.org/2000/svg"><path d="M11.120 2.039 C 9.316 2.220,7.707 2.807,6.280 3.806 C 2.738 6.286,1.178 10.759,2.422 14.865 C 2.918 16.499,3.728 17.850,4.939 19.061 C 5.928 20.050,7.038 20.788,8.272 21.278 C 11.634 22.610,15.313 22.080,18.200 19.845 C 18.637 19.507,19.507 18.637,19.845 18.200 C 21.255 16.379,22.000 14.234,22.000 12.000 C 22.000 7.432,18.842 3.387,14.430 2.303 C 13.446 2.062,12.028 1.948,11.120 2.039 M11.605 7.381 C 11.824 7.522,11.933 7.727,11.933 7.996 C 11.933 8.119,11.910 8.265,11.881 8.320 C 11.853 8.375,11.206 9.050,10.445 9.820 L 9.060 11.220 12.643 11.240 L 16.226 11.260 16.388 11.367 C 16.628 11.526,16.733 11.721,16.733 12.007 C 16.733 12.203,16.714 12.271,16.616 12.409 C 16.552 12.501,16.436 12.613,16.359 12.658 C 16.222 12.739,16.157 12.740,12.640 12.760 L 9.060 12.780 10.445 14.180 C 11.206 14.950,11.853 15.625,11.881 15.680 C 11.910 15.735,11.933 15.882,11.933 16.008 C 11.933 16.508,11.484 16.849,10.995 16.720 C 10.841 16.679,10.666 16.520,9.527 15.387 C 8.816 14.679,8.110 13.947,7.958 13.760 C 7.311 12.962,7.119 12.198,7.347 11.320 C 7.415 11.056,7.620 10.673,7.870 10.343 C 8.061 10.090,10.574 7.536,10.775 7.391 C 11.011 7.220,11.350 7.216,11.605 7.381 " fill="#FAFAFA" stroke="none" fill-rule="evenodd"></path></svg>