<svg width="24" height="24" viewBox="0 0 24 24" fill="none" xmlns="http://www.w3.org/2000/svg"><path d="M8.771 3.043 C 6.564 3.136,5.517 3.470,4.554 4.391 C 3.506 5.392,3.165 6.355,3.041 8.660 C 2.988 9.644,2.988 14.356,3.041 15.340 C 3.164 17.628,3.503 18.596,4.527 19.583 C 5.081 20.117,5.578 20.416,6.240 20.613 C 7.313 20.933,8.296 20.999,12.000 20.999 C 15.704 20.999,16.687 20.933,17.760 20.613 C 18.422 20.416,18.919 20.117,19.473 19.583 C 20.043 19.034,20.407 18.452,20.613 17.760 C 20.933 16.687,20.999 15.704,20.999 12.000 C 20.999 8.296,20.933 7.313,20.613 6.240 C 20.404 5.538,20.035 4.953,19.446 4.391 C 18.460 3.449,17.477 3.143,15.100 3.041 C 14.050 2.996,9.863 2.997,8.771 3.043 M14.405 6.381 C 14.624 6.522,14.733 6.727,14.733 6.996 C 14.733 7.119,14.710 7.265,14.681 7.320 C 14.653 7.375,13.879 8.176,12.962 9.100 C 11.304 10.770,10.982 11.137,10.836 11.521 C 10.735 11.786,10.735 12.214,10.836 12.479 C 10.982 12.863,11.304 13.230,12.962 14.900 C 13.879 15.824,14.653 16.625,14.681 16.680 C 14.710 16.735,14.733 16.884,14.733 17.011 C 14.733 17.432,14.423 17.740,14.000 17.737 C 13.876 17.737,13.728 17.708,13.660 17.671 C 13.467 17.567,10.244 14.299,9.965 13.924 C 9.459 13.245,9.270 12.723,9.269 12.000 C 9.267 11.283,9.457 10.759,9.965 10.076 C 10.201 9.758,13.318 6.576,13.575 6.391 C 13.811 6.220,14.150 6.216,14.405 6.381 " fill="#FAFAFA" stroke="none" fill-rule="evenodd"></path></svg>