<svg width="24" height="24" viewBox="0 0 24 24" fill="none" xmlns="http://www.w3.org/2000/svg"><path d="M13.815 6.277 C 13.746 6.294,13.638 6.345,13.575 6.390 C 13.512 6.436,12.713 7.226,11.800 8.146 C 10.099 9.860,9.818 10.185,9.540 10.749 C 9.331 11.174,9.265 11.475,9.265 12.000 C 9.265 12.525,9.331 12.826,9.540 13.251 C 9.822 13.824,10.092 14.133,11.879 15.928 C 13.440 17.495,13.638 17.680,13.795 17.720 C 14.368 17.869,14.871 17.365,14.719 16.795 C 14.678 16.640,14.485 16.430,13.004 14.940 C 10.859 12.780,10.780 12.676,10.780 12.000 C 10.780 11.324,10.859 11.220,13.004 9.060 C 14.485 7.570,14.678 7.360,14.719 7.205 C 14.806 6.879,14.688 6.564,14.412 6.385 C 14.241 6.275,14.001 6.231,13.815 6.277 " fill="#FAFAFA" stroke="none" fill-rule="evenodd"></path></svg>