<svg width="24" height="24" viewBox="0 0 24 24" fill="none" xmlns="http://www.w3.org/2000/svg"><path d="M8.771 3.043 C 6.564 3.136,5.517 3.470,4.554 4.391 C 3.506 5.392,3.165 6.355,3.041 8.660 C 2.988 9.644,2.988 14.356,3.041 15.340 C 3.164 17.628,3.503 18.596,4.527 19.583 C 5.081 20.117,5.578 20.416,6.240 20.613 C 7.313 20.933,8.296 20.999,12.000 20.999 C 15.704 20.999,16.687 20.933,17.760 20.613 C 18.422 20.416,18.919 20.117,19.473 19.583 C 20.043 19.034,20.407 18.452,20.613 17.760 C 20.933 16.687,20.999 15.704,20.999 12.000 C 20.999 8.296,20.933 7.313,20.613 6.240 C 20.404 5.538,20.035 4.953,19.446 4.391 C 18.460 3.449,17.477 3.143,15.100 3.041 C 14.050 2.996,9.863 2.997,8.771 3.043 M11.605 7.381 C 11.824 7.522,11.933 7.727,11.933 7.996 C 11.933 8.119,11.910 8.265,11.881 8.320 C 11.853 8.375,11.206 9.050,10.445 9.820 L 9.060 11.220 12.643 11.240 L 16.226 11.260 16.388 11.367 C 16.628 11.526,16.733 11.721,16.733 12.007 C 16.733 12.203,16.714 12.271,16.616 12.409 C 16.552 12.501,16.436 12.613,16.359 12.658 C 16.222 12.739,16.157 12.740,12.640 12.760 L 9.060 12.780 10.445 14.180 C 11.206 14.950,11.853 15.625,11.881 15.680 C 11.910 15.735,11.933 15.882,11.933 16.008 C 11.933 16.508,11.484 16.849,10.995 16.720 C 10.841 16.679,10.666 16.520,9.527 15.387 C 8.816 14.679,8.110 13.947,7.958 13.760 C 7.311 12.962,7.119 12.198,7.347 11.320 C 7.415 11.056,7.620 10.673,7.870 10.343 C 8.061 10.090,10.574 7.536,10.775 7.391 C 11.011 7.220,11.350 7.216,11.605 7.381 " fill="#FAFAFA" stroke="none" fill-rule="evenodd"></path></svg>