<svg xmlns="http://www.w3.org/2000/svg" viewBox="0 0 28 28" fill="currentColor"><path d="M8.719 7.327 C 5.708 7.613,3.269 9.853,2.723 12.833 C 2.613 13.434,2.613 14.566,2.723 15.167 C 3.169 17.601,4.888 19.581,7.233 20.365 C 8.043 20.636,9.159 20.783,9.565 20.674 C 10.283 20.480,10.431 19.522,9.807 19.109 C 9.650 19.005,9.547 18.982,9.070 18.946 C 7.583 18.831,6.356 18.203,5.478 17.106 C 4.774 16.226,4.387 15.124,4.387 14.000 C 4.387 11.877,5.740 9.994,7.762 9.305 C 8.168 9.166,8.785 9.053,9.141 9.053 C 9.519 9.053,9.751 8.974,9.946 8.778 C 10.341 8.383,10.278 7.754,9.813 7.447 C 9.601 7.306,9.291 7.272,8.719 7.327 M18.446 7.325 C 17.802 7.481,17.580 8.304,18.054 8.778 C 18.249 8.974,18.481 9.053,18.859 9.053 C 19.215 9.053,19.832 9.166,20.238 9.305 C 21.848 9.854,23.041 11.146,23.480 12.816 C 23.573 13.169,23.589 13.343,23.589 14.000 C 23.589 14.956,23.499 15.353,23.101 16.170 C 22.295 17.821,20.823 18.800,18.930 18.946 C 18.453 18.982,18.350 19.005,18.193 19.109 C 17.569 19.522,17.717 20.480,18.435 20.674 C 18.835 20.782,19.961 20.633,20.767 20.365 C 23.107 19.586,24.835 17.594,25.277 15.167 C 25.386 14.567,25.386 13.433,25.277 12.833 C 24.834 10.402,23.088 8.396,20.747 7.630 C 20.022 7.393,18.821 7.234,18.446 7.325 M9.112 13.158 C 8.792 13.235,8.535 13.518,8.470 13.866 C 8.397 14.257,8.692 14.727,9.078 14.835 C 9.339 14.907,18.661 14.907,18.922 14.835 C 19.170 14.766,19.437 14.492,19.505 14.238 C 19.609 13.852,19.470 13.494,19.127 13.267 L 18.930 13.137 14.097 13.129 C 11.438 13.125,9.195 13.138,9.112 13.158 " stroke="none" fill-rule="evenodd"></path></svg>