<svg xmlns="http://www.w3.org/2000/svg" viewBox="0 0 20 20" fill="none" stroke="currentColor" stroke-width="2" stroke-linecap="round" stroke-linejoin="round"><path d="M9.285 1.535 C 7.220 1.705,5.308 2.621,3.850 4.138 C 3.234 4.779,2.797 5.405,2.398 6.217 C 1.745 7.547,1.470 8.782,1.511 10.200 C 1.548 11.469,1.803 12.537,2.350 13.711 C 3.097 15.317,4.683 16.903,6.289 17.650 C 7.508 18.218,8.748 18.500,10.026 18.500 C 10.857 18.500,11.639 18.385,12.421 18.148 C 13.135 17.932,13.981 17.545,14.583 17.160 C 16.732 15.785,18.181 13.441,18.451 10.900 C 18.553 9.943,18.504 9.614,18.214 9.315 C 18.004 9.100,17.811 9.020,17.500 9.020 C 17.189 9.020,16.996 9.100,16.786 9.315 C 16.605 9.502,16.500 9.762,16.500 10.026 C 16.500 10.643,16.370 11.430,16.168 12.035 C 15.540 13.922,14.078 15.433,12.233 16.100 C 11.530 16.354,10.976 16.462,10.233 16.489 C 7.665 16.584,5.293 15.161,4.165 12.850 C 3.414 11.311,3.299 9.577,3.839 7.950 C 4.400 6.259,5.625 4.883,7.250 4.115 C 8.062 3.732,9.085 3.501,9.974 3.500 C 10.527 3.500,11.000 3.039,11.000 2.500 C 11.000 2.135,10.743 1.741,10.408 1.593 C 10.220 1.510,9.835 1.490,9.285 1.535 " stroke="none" fill-rule="evenodd" fill="black"></path></svg>