<svg width="24" height="24" viewBox="0 0 24 24" fill="none" xmlns="http://www.w3.org/2000/svg"><path d="M13.420 3.039 C 12.347 3.164,11.329 3.647,10.538 4.406 C 9.841 5.076,9.397 5.851,9.131 6.860 L 9.026 7.260 9.010 9.249 L 8.994 11.238 5.884 11.249 L 2.774 11.260 2.605 11.372 C 2.311 11.566,2.192 11.873,2.281 12.204 C 2.340 12.422,2.569 12.657,2.781 12.715 C 2.890 12.746,3.882 12.760,5.967 12.760 L 8.994 12.760 9.010 14.750 L 9.026 16.740 9.131 17.140 C 9.396 18.149,9.843 18.927,10.536 19.590 C 11.244 20.268,11.995 20.665,13.020 20.905 C 13.306 20.972,13.518 20.980,15.000 20.980 C 16.482 20.980,16.694 20.972,16.980 20.905 C 18.045 20.656,18.800 20.245,19.522 19.522 C 20.245 18.800,20.656 18.045,20.905 16.980 C 20.976 16.677,20.980 16.414,20.980 12.000 C 20.980 7.586,20.976 7.323,20.905 7.020 C 20.738 6.305,20.450 5.637,20.090 5.124 C 19.831 4.756,19.198 4.131,18.840 3.892 C 18.274 3.513,17.722 3.274,17.040 3.112 C 16.737 3.040,16.539 3.030,15.200 3.019 C 14.375 3.012,13.574 3.021,13.420 3.039 M13.360 7.349 C 13.602 7.502,16.249 9.620,16.598 9.941 C 17.530 10.797,17.833 11.438,17.718 12.310 C 17.641 12.896,17.323 13.393,16.598 14.059 C 16.315 14.320,14.374 15.884,13.634 16.448 C 13.250 16.741,13.081 16.796,12.795 16.719 C 12.427 16.620,12.168 16.161,12.282 15.812 C 12.310 15.728,12.359 15.619,12.391 15.570 C 12.423 15.520,12.965 15.071,13.595 14.573 C 14.863 13.569,15.530 13.022,15.677 12.864 L 15.774 12.760 12.387 12.760 L 9.000 12.760 9.000 12.000 L 9.000 11.240 12.387 11.240 L 15.774 11.240 15.677 11.136 C 15.532 10.980,14.873 10.440,13.595 9.428 C 12.966 8.930,12.424 8.481,12.391 8.431 C 12.184 8.113,12.220 7.740,12.484 7.476 C 12.568 7.392,12.696 7.305,12.768 7.284 C 12.934 7.234,13.229 7.267,13.360 7.349 " fill="#FAFAFA" stroke="none" fill-rule="evenodd"></path></svg>