<svg width="24" height="24" viewBox="0 0 24 24" fill="none" xmlns="http://www.w3.org/2000/svg"><path d="M7.420 3.039 C 6.347 3.164,5.329 3.647,4.538 4.406 C 3.832 5.085,3.373 5.895,3.115 6.920 L 3.020 7.300 3.020 12.000 L 3.020 16.700 3.115 17.080 C 3.373 18.104,3.833 18.918,4.536 19.590 C 5.244 20.268,5.995 20.665,7.020 20.905 C 7.306 20.972,7.518 20.980,9.000 20.980 C 10.482 20.980,10.694 20.972,10.980 20.905 C 12.045 20.656,12.800 20.245,13.522 19.522 C 14.228 18.817,14.611 18.128,14.889 17.064 C 14.968 16.760,14.974 16.618,14.990 14.750 L 15.006 12.760 17.390 12.760 L 19.774 12.760 19.677 12.864 C 19.530 13.022,18.863 13.569,17.592 14.575 C 16.961 15.075,16.409 15.541,16.366 15.612 C 16.034 16.151,16.504 16.844,17.129 16.738 C 17.314 16.707,17.454 16.604,19.140 15.259 C 20.853 13.893,21.233 13.522,21.522 12.940 C 21.831 12.316,21.831 11.684,21.522 11.060 C 21.196 10.402,20.803 10.045,17.820 7.696 C 17.299 7.285,17.266 7.268,17.007 7.264 C 16.731 7.260,16.527 7.371,16.368 7.611 C 16.225 7.827,16.219 8.152,16.353 8.369 C 16.412 8.463,16.868 8.853,17.593 9.426 C 18.873 10.439,19.532 10.980,19.677 11.136 L 19.774 11.240 17.390 11.240 L 15.006 11.240 14.991 9.250 L 14.975 7.260 14.868 6.861 C 14.588 5.823,14.161 5.077,13.462 4.406 C 12.786 3.758,12.007 3.342,11.040 3.112 C 10.737 3.040,10.539 3.030,9.200 3.019 C 8.375 3.012,7.574 3.021,7.420 3.039 M15.000 12.001 L 15.000 12.761 10.890 12.751 C 6.830 12.740,6.778 12.739,6.641 12.658 C 6.564 12.613,6.448 12.501,6.384 12.409 C 6.098 12.003,6.330 11.394,6.815 11.278 C 6.884 11.262,8.754 11.246,10.970 11.244 L 15.000 11.240 15.000 12.001 " fill="#FAFAFA" stroke="none" fill-rule="evenodd"></path></svg>