<svg xmlns="http://www.w3.org/2000/svg" viewBox="0 0 704 829" fill="currentColor"><path d="M164.267 1.981 C 153.244 3.142,133.763 7.527,123.032 11.262 C 60.794 32.925,16.320 83.660,2.792 148.427 C 0.690 158.492,0.587 167.289,0.587 336.160 L 0.587 513.333 3.720 520.017 C 7.696 528.499,15.233 536.056,23.990 540.341 C 33.939 545.208,47.258 545.821,56.980 541.858 C 68.201 537.284,544.079 251.512,550.544 245.465 C 553.617 242.591,557.590 237.269,559.372 233.639 C 562.221 227.839,562.613 225.690,562.613 215.893 C 562.613 206.226,562.192 203.847,559.434 197.963 C 557.641 194.136,553.805 188.862,550.634 185.866 C 546.602 182.055,506.720 158.662,409.493 103.077 C 334.957 60.464,269.437 23.308,263.893 20.508 C 245.572 11.255,224.488 4.975,203.017 2.377 C 193.623 1.240,173.281 1.032,164.267 1.981 M213.448 93.593 C 214.082 96.002,216.198 105.902,218.150 115.592 C 222.327 136.336,224.579 143.292,231.302 156.214 C 240.037 173.004,253.816 188.794,269.280 199.735 C 285.890 211.487,298.202 216.226,328.003 222.339 C 339.588 224.716,349.727 227.207,350.533 227.874 C 352.483 229.487,352.396 232.877,350.363 234.565 C 349.462 235.312,339.826 237.756,328.949 239.995 C 318.072 242.234,306.282 244.904,302.749 245.929 C 274.229 254.201,244.699 279.336,230.565 307.372 C 224.732 318.941,221.935 327.988,217.625 349.232 C 213.258 370.752,211.338 375.891,207.908 375.231 C 204.878 374.647,203.459 370.520,199.523 350.827 C 195.206 329.229,192.538 320.545,186.409 308.129 C 173.913 282.819,151.610 261.661,125.495 250.344 C 115.956 246.210,110.657 244.781,81.666 238.521 C 65.701 235.074,62.612 233.300,65.243 229.093 C 66.163 227.622,71.146 226.090,82.837 223.685 C 116.395 216.783,131.834 211.100,147.604 199.847 C 165.429 187.127,182.865 165.165,190.204 146.189 C 193.918 136.586,195.795 129.356,201.197 103.840 C 203.077 94.965,204.886 89.235,206.091 88.339 C 208.949 86.215,212.096 88.463,213.448 93.593 M598.286 289.780 C 595.320 290.308,591.301 291.564,589.356 292.569 C 587.412 293.575,559.215 310.605,526.697 330.413 C 494.179 350.222,465.036 367.372,461.934 368.524 C 458.833 369.676,454.609 371.618,452.548 372.840 C 439.931 380.317,222.672 514.438,213.547 520.383 C 207.416 524.377,173.360 545.267,137.867 566.805 C 102.373 588.344,71.100 608.017,68.371 610.524 C 60.939 617.348,57.159 626.020,56.574 637.580 C 55.661 655.619,62.887 666.786,83.131 678.623 C 107.221 692.710,135.193 700.480,161.814 700.480 L 174.308 700.480 175.720 710.851 C 179.278 736.970,191.281 762.018,209.492 781.323 C 220.370 792.854,230.574 800.317,245.813 807.888 C 263.476 816.663,276.947 820.143,296.533 820.992 C 313.948 821.746,324.939 820.422,339.680 815.795 C 349.516 812.707,522.008 738.127,538.824 729.692 C 570.582 713.760,598.989 685.646,615.917 653.392 C 639.058 609.302,643.047 558.588,627.000 512.487 C 622.088 498.376,614.326 482.399,607.105 471.537 C 604.253 467.248,601.920 463.355,601.920 462.887 C 601.920 462.419,604.541 459.168,607.744 455.663 C 635.407 425.396,650.888 377.221,646.701 334.435 C 645.920 326.454,644.298 317.640,642.944 314.022 C 636.532 296.884,617.230 286.406,598.286 289.780 M390.681 491.137 C 399.677 493.809,408.624 502.940,411.315 512.198 C 415.837 527.752,408.850 544.042,394.713 550.905 C 387.855 554.235,374.775 554.655,368.223 551.757 C 355.982 546.342,348.480 535.277,348.480 522.637 C 348.480 507.018,356.108 496.091,370.635 490.900 C 376.410 488.836,383.204 488.917,390.681 491.137 M479.509 512.155 C 486.621 514.267,495.432 521.660,498.872 528.402 C 500.221 531.047,501.585 536.454,501.904 540.418 C 504.257 569.734,470.334 586.500,448.123 566.998 C 441.213 560.931,438.235 553.576,438.272 542.667 C 438.310 531.340,440.693 525.995,448.938 518.737 C 457.717 511.009,468.114 508.771,479.509 512.155 M373.946 582.686 C 387.461 589.165,394.526 605.171,390.295 619.725 C 386.048 634.332,373.755 643.671,359.040 643.468 C 349.941 643.343,344.601 641.253,337.865 635.181 C 324.282 622.935,323.593 601.072,336.388 588.277 C 346.318 578.347,360.492 576.237,373.946 582.686 M465.282 604.824 C 482.206 614.742,486.033 638.882,473.025 653.660 C 460.933 667.398,441.315 668.824,427.822 656.947 C 419.387 649.522,417.149 644.383,417.144 632.427 C 417.140 621.543,418.341 618.195,424.951 610.667 C 434.427 599.874,452.394 597.271,465.282 604.824 " stroke="none" fill-rule="evenodd"></path></svg>