<svg xmlns="http://www.w3.org/2000/svg" viewBox="0 0 24 24" fill="currentColor"><path d="M11.340 2.024 C 10.426 2.114,9.865 2.214,9.201 2.405 C 8.502 2.605,7.373 3.076,7.407 3.152 C 7.414 3.167,7.495 3.306,7.588 3.460 C 7.680 3.614,7.806 3.884,7.867 4.060 C 7.971 4.357,7.979 4.424,7.979 5.000 C 7.979 5.576,7.971 5.643,7.867 5.940 C 7.532 6.900,6.824 7.579,5.839 7.885 C 5.450 8.006,4.682 8.017,4.280 7.908 C 3.966 7.823,3.587 7.650,3.338 7.479 C 3.237 7.409,3.147 7.360,3.138 7.369 C 3.063 7.444,2.671 8.374,2.514 8.849 C 1.829 10.929,1.832 13.102,2.524 15.175 C 2.979 16.541,3.734 17.804,4.720 18.851 C 6.716 20.969,10.020 22.247,12.754 21.959 C 13.900 21.838,14.886 21.503,15.957 20.870 C 16.515 20.540,16.629 20.531,17.481 20.753 C 18.548 21.032,18.885 21.091,19.299 21.073 C 19.632 21.058,19.703 21.041,19.980 20.904 C 20.389 20.702,20.702 20.389,20.904 19.980 C 21.041 19.703,21.058 19.632,21.073 19.299 C 21.091 18.885,21.032 18.548,20.753 17.481 C 20.534 16.640,20.542 16.511,20.848 15.998 C 21.672 14.618,22.007 13.451,22.012 11.940 C 22.018 10.398,21.636 8.901,20.855 7.400 C 19.325 4.457,16.532 2.506,13.240 2.080 C 12.885 2.034,11.616 1.996,11.340 2.024 M4.545 3.063 C 3.657 3.278,3.034 4.077,3.034 5.000 C 3.034 5.564,3.220 6.011,3.620 6.412 C 4.400 7.192,5.652 7.188,6.436 6.404 C 6.722 6.118,6.901 5.769,6.988 5.328 C 7.047 5.026,7.047 4.974,6.988 4.672 C 6.902 4.235,6.722 3.882,6.445 3.605 C 5.941 3.103,5.226 2.899,4.545 3.063 M8.431 10.983 C 9.163 11.348,9.123 12.431,8.365 12.770 C 7.873 12.990,7.264 12.746,7.049 12.243 C 6.970 12.059,6.970 11.661,7.049 11.477 C 7.277 10.945,7.904 10.721,8.431 10.983 M12.431 10.983 C 13.163 11.348,13.123 12.431,12.365 12.770 C 11.992 12.937,11.502 12.832,11.235 12.529 C 11.058 12.327,10.988 12.137,10.988 11.860 C 10.988 11.583,11.058 11.393,11.236 11.191 C 11.521 10.867,12.022 10.779,12.431 10.983 M16.431 10.983 C 17.163 11.348,17.123 12.431,16.365 12.770 C 15.992 12.937,15.502 12.832,15.235 12.529 C 15.058 12.327,14.988 12.137,14.988 11.860 C 14.988 11.583,15.058 11.393,15.236 11.191 C 15.521 10.867,16.022 10.779,16.431 10.983 " stroke="none" fill-rule="evenodd"></path></svg>