<svg width="20" height="20" viewBox="0 0 20 20" fill="none" xmlns="http://www.w3.org/2000/svg"><path d="M6.633 1.890 C 5.662 1.994,4.761 2.403,4.068 3.055 C 3.117 3.949,2.824 4.853,2.734 7.167 C 2.692 8.257,2.692 11.693,2.734 12.814 C 2.794 14.415,2.948 15.268,3.302 15.971 C 3.537 16.437,4.094 17.037,4.613 17.382 C 5.410 17.912,6.428 18.196,7.212 18.108 C 8.327 17.982,9.207 17.577,12.715 15.574 C 15.434 14.022,16.238 13.501,16.940 12.839 C 17.531 12.281,17.888 11.620,18.056 10.775 C 18.134 10.380,18.134 9.620,18.056 9.225 C 17.885 8.363,17.529 7.713,16.907 7.130 C 16.220 6.486,15.313 5.906,12.417 4.259 C 10.708 3.287,10.301 3.065,9.555 2.696 C 8.496 2.172,7.906 1.971,7.232 1.901 C 6.894 1.867,6.855 1.866,6.633 1.890 " fill="white" stroke="none" fill-rule="evenodd"></path></svg>