<svg width="24" height="24" viewBox="0 0 24 24" fill="none" xmlns="http://www.w3.org/2000/svg"><path d="M11.811 3.278 C 11.639 3.320,11.417 3.493,11.330 3.652 C 11.265 3.771,11.259 4.046,11.249 7.509 L 11.238 11.238 7.506 11.249 L 3.774 11.260 3.605 11.372 C 3.311 11.566,3.192 11.873,3.281 12.204 C 3.340 12.422,3.569 12.657,3.781 12.715 C 3.892 12.746,5.050 12.760,7.590 12.760 L 11.240 12.760 11.240 16.410 C 11.240 18.950,11.254 20.108,11.285 20.219 C 11.344 20.432,11.578 20.660,11.798 20.719 C 12.198 20.827,12.610 20.599,12.718 20.209 C 12.745 20.111,12.760 18.797,12.760 16.410 L 12.760 12.760 16.410 12.760 C 18.950 12.760,20.108 12.746,20.219 12.715 C 20.431 12.657,20.660 12.422,20.719 12.204 C 20.808 11.873,20.689 11.566,20.395 11.372 L 20.226 11.260 16.494 11.249 L 12.762 11.238 12.751 7.509 C 12.740 3.833,12.739 3.778,12.658 3.641 C 12.494 3.361,12.122 3.202,11.811 3.278 " fill="#FAFAFA" stroke="none" fill-rule="evenodd"></path></svg>