<svg width="32" height="32" viewBox="0 0 32 32" fill="none" xmlns="http://www.w3.org/2000/svg"><path d="M15.192 2.718 C 13.014 2.996,11.025 4.495,10.187 6.488 C 9.454 8.233,9.501 10.089,10.319 11.767 C 11.392 13.966,13.558 15.321,16.000 15.321 C 17.654 15.321,19.160 14.720,20.356 13.584 C 21.927 12.092,22.640 9.843,22.208 7.742 C 21.618 4.876,19.154 2.790,16.244 2.696 C 15.861 2.683,15.387 2.693,15.192 2.718 M11.209 17.391 C 9.891 17.562,8.679 18.138,7.702 19.057 C 7.092 19.632,6.747 20.081,6.406 20.747 C 5.906 21.719,5.690 22.606,5.691 23.680 C 5.692 25.389,6.329 26.920,7.545 28.135 C 8.478 29.066,9.637 29.671,10.925 29.895 C 11.590 30.011,20.410 30.011,21.075 29.895 C 22.363 29.671,23.522 29.066,24.455 28.135 C 25.671 26.919,26.304 25.397,26.308 23.680 C 26.310 22.608,26.094 21.721,25.594 20.747 C 25.253 20.081,24.908 19.632,24.298 19.057 C 23.297 18.115,22.113 17.561,20.731 17.388 C 20.211 17.323,11.714 17.325,11.209 17.391 " fill="#474748" stroke="none" fill-rule="evenodd"></path></svg>