<svg width="24" height="24" viewBox="0 0 24 24" fill="none" xmlns="http://www.w3.org/2000/svg"><path d="M16.254 4.278 C 15.763 4.395,15.523 4.946,15.776 5.376 C 15.829 5.466,16.282 5.936,16.783 6.420 C 17.284 6.904,17.883 7.507,18.114 7.760 L 18.534 8.220 13.957 8.242 C 9.832 8.261,9.344 8.270,9.020 8.333 C 6.591 8.801,4.771 10.614,4.334 13.000 C 4.239 13.515,4.239 14.485,4.334 15.000 C 4.716 17.084,6.191 18.784,8.200 19.456 C 9.067 19.746,8.814 19.732,13.670 19.749 C 16.851 19.759,18.085 19.751,18.208 19.718 C 18.430 19.658,18.659 19.428,18.719 19.204 C 18.808 18.873,18.689 18.566,18.395 18.372 L 18.226 18.260 13.763 18.238 C 9.706 18.218,9.276 18.210,9.040 18.147 C 7.790 17.815,6.805 17.051,6.256 15.988 C 5.914 15.325,5.760 14.709,5.760 14.000 C 5.760 12.181,6.920 10.566,8.653 9.975 C 9.289 9.758,9.250 9.760,14.068 9.760 L 18.525 9.760 18.436 9.890 C 18.387 9.961,17.785 10.578,17.099 11.260 C 16.412 11.942,15.812 12.563,15.765 12.640 C 15.706 12.737,15.680 12.847,15.680 12.996 C 15.680 13.303,15.814 13.520,16.087 13.656 C 16.332 13.778,16.481 13.785,16.702 13.685 C 16.918 13.587,19.417 11.100,19.751 10.651 C 20.178 10.076,20.358 9.586,20.359 8.996 C 20.361 8.388,20.155 7.866,19.673 7.251 C 19.393 6.893,16.921 4.423,16.764 4.344 C 16.620 4.270,16.404 4.243,16.254 4.278 " fill="#FAFAFA" stroke="none" fill-rule="evenodd"></path></svg>