<svg xmlns="http://www.w3.org/2000/svg" viewBox="0 0 28 28" fill="currentColor"><path d="M23.910 0.325 C 23.659 0.384,23.438 0.553,23.337 0.763 C 23.244 0.955,23.240 1.040,23.235 2.966 C 23.233 4.068,23.217 5.083,23.200 5.222 L 23.170 5.473 22.961 5.246 C 22.106 4.317,20.764 3.350,19.437 2.708 C 16.978 1.519,14.130 1.172,11.416 1.732 C 6.731 2.699,2.969 6.345,1.817 11.037 C 1.548 12.128,1.376 13.805,1.489 14.220 C 1.658 14.839,2.407 15.079,2.893 14.670 C 3.142 14.460,3.185 14.318,3.226 13.573 C 3.297 12.278,3.535 11.130,3.950 10.080 C 5.377 6.470,8.564 3.927,12.413 3.327 C 13.241 3.198,14.940 3.212,15.742 3.354 C 18.048 3.762,19.964 4.741,21.572 6.334 C 21.971 6.729,22.061 6.838,22.015 6.867 C 22.009 6.871,20.920 6.887,19.596 6.902 L 17.190 6.930 17.017 7.047 C 16.825 7.177,16.613 7.550,16.613 7.757 C 16.613 8.068,16.910 8.492,17.193 8.586 C 17.422 8.661,21.578 8.666,22.120 8.591 C 23.010 8.469,23.567 8.211,24.077 7.687 C 24.568 7.182,24.803 6.659,24.922 5.810 C 24.996 5.277,24.992 1.053,24.917 0.854 C 24.774 0.477,24.306 0.231,23.910 0.325 M25.446 13.158 C 25.244 13.207,24.984 13.410,24.889 13.594 C 24.835 13.699,24.801 13.943,24.774 14.420 C 24.722 15.327,24.623 15.996,24.426 16.753 C 23.650 19.737,21.550 22.308,18.783 23.661 C 17.715 24.184,16.808 24.476,15.642 24.673 C 14.872 24.802,13.014 24.791,12.239 24.651 C 10.344 24.311,8.688 23.567,7.257 22.413 C 6.707 21.971,5.846 21.112,5.898 21.060 C 5.918 21.040,7.011 21.013,8.326 21.000 L 10.717 20.977 10.886 20.861 C 11.123 20.698,11.266 20.425,11.266 20.135 C 11.267 19.854,11.159 19.648,10.904 19.442 L 10.725 19.297 8.244 19.297 C 5.648 19.297,5.567 19.302,4.914 19.513 C 4.126 19.767,3.414 20.500,3.153 21.326 C 2.940 21.999,2.919 22.313,2.928 24.679 C 2.933 26.095,2.954 26.943,2.985 27.040 C 3.081 27.330,3.501 27.627,3.816 27.627 C 4.024 27.627,4.397 27.415,4.527 27.223 L 4.643 27.050 4.667 24.776 C 4.680 23.525,4.703 22.488,4.718 22.473 C 4.734 22.457,4.838 22.545,4.950 22.667 C 5.062 22.790,5.323 23.045,5.529 23.236 C 7.423 24.983,9.778 26.081,12.413 26.444 C 13.218 26.555,14.843 26.555,15.610 26.443 C 19.334 25.903,22.431 23.961,24.478 20.883 C 25.735 18.993,26.502 16.560,26.524 14.397 C 26.529 13.815,26.519 13.725,26.434 13.581 C 26.243 13.254,25.809 13.069,25.446 13.158 " stroke="none" fill-rule="evenodd"></path></svg>