<svg width="24" height="24" viewBox="0 0 24 24" fill="none" xmlns="http://www.w3.org/2000/svg"><path d="M3.180 0.260 C 3.158 0.267,3.090 0.284,3.029 0.298 C 2.876 0.331,2.614 0.578,2.561 0.736 C 2.494 0.941,2.490 4.569,2.557 5.000 C 2.670 5.726,2.891 6.205,3.303 6.617 C 3.727 7.041,4.216 7.261,4.960 7.364 C 5.425 7.428,8.987 7.424,9.183 7.359 C 9.426 7.279,9.680 6.916,9.680 6.649 C 9.680 6.471,9.498 6.151,9.334 6.040 L 9.186 5.940 7.156 5.920 C 6.040 5.909,5.116 5.890,5.104 5.877 C 5.070 5.843,5.853 5.080,6.242 4.769 C 7.465 3.791,8.879 3.163,10.507 2.875 C 11.194 2.753,12.651 2.741,13.360 2.852 C 16.660 3.366,19.392 5.546,20.614 8.640 C 20.970 9.540,21.171 10.512,21.234 11.640 C 21.270 12.272,21.308 12.396,21.520 12.574 C 21.833 12.838,22.309 12.795,22.574 12.480 C 22.737 12.286,22.773 12.083,22.743 11.520 C 22.546 7.773,20.506 4.465,17.258 2.628 C 14.636 1.145,11.371 0.852,8.500 1.842 C 6.938 2.380,5.505 3.284,4.356 4.455 L 4.052 4.765 4.026 4.457 C 4.012 4.287,4.000 3.405,4.000 2.497 C 4.000 1.427,3.985 0.806,3.957 0.733 C 3.906 0.597,3.737 0.412,3.600 0.342 C 3.492 0.287,3.245 0.238,3.180 0.260 " fill="#FAFAFA" stroke="none" fill-rule="evenodd"></path></svg>