<svg width="24" height="24" viewBox="0 0 24 24" fill="none" xmlns="http://www.w3.org/2000/svg"><path d="M20.494 0.278 C 20.279 0.329,20.090 0.474,20.003 0.654 C 19.923 0.819,19.920 0.892,19.916 2.543 C 19.914 3.487,19.900 4.357,19.886 4.476 L 19.860 4.691 19.681 4.496 C 18.948 3.700,17.798 2.872,16.660 2.321 C 14.444 1.249,11.865 0.979,9.450 1.564 C 5.195 2.596,1.990 6.128,1.361 10.480 C 1.256 11.210,1.218 11.973,1.276 12.188 C 1.421 12.719,2.063 12.925,2.480 12.574 C 2.693 12.395,2.730 12.273,2.765 11.634 C 2.826 10.524,3.030 9.540,3.386 8.640 C 4.608 5.546,7.340 3.366,10.640 2.852 C 11.349 2.741,12.806 2.753,13.493 2.875 C 15.470 3.225,17.112 4.064,18.490 5.429 C 18.832 5.768,18.910 5.861,18.870 5.886 C 18.864 5.890,17.932 5.903,16.797 5.916 L 14.734 5.940 14.586 6.040 C 14.422 6.151,14.240 6.471,14.240 6.649 C 14.240 6.916,14.494 7.279,14.737 7.359 C 14.933 7.424,18.495 7.428,18.960 7.364 C 19.723 7.259,20.200 7.038,20.637 6.589 C 21.058 6.156,21.260 5.708,21.361 4.980 C 21.425 4.523,21.422 0.902,21.357 0.732 C 21.235 0.409,20.833 0.198,20.494 0.278 " fill="#FAFAFA" stroke="none" fill-rule="evenodd"></path></svg>