<svg width="24" height="24" viewBox="0 0 24 24" fill="none" xmlns="http://www.w3.org/2000/svg"><path d="M15.805 6.279 C 15.412 6.374,15.173 6.798,15.281 7.205 C 15.322 7.360,15.516 7.570,16.995 9.060 C 18.450 10.525,19.000 11.116,19.000 11.213 C 19.000 11.227,15.574 11.244,11.387 11.249 L 3.774 11.260 3.606 11.372 C 3.311 11.566,3.192 11.873,3.281 12.204 C 3.340 12.422,3.569 12.657,3.781 12.715 C 3.894 12.747,6.100 12.760,11.470 12.760 C 15.612 12.760,19.000 12.772,19.000 12.786 C 19.000 12.884,18.452 13.472,16.995 14.940 C 15.516 16.430,15.322 16.640,15.281 16.795 C 15.129 17.365,15.632 17.869,16.205 17.720 C 16.362 17.680,16.560 17.495,18.121 15.928 C 19.908 14.133,20.178 13.824,20.460 13.251 C 20.669 12.826,20.735 12.525,20.735 12.000 C 20.735 11.475,20.669 11.174,20.460 10.749 C 20.182 10.183,19.902 9.861,18.180 8.127 C 17.256 7.196,16.446 6.402,16.380 6.362 C 16.232 6.271,15.984 6.236,15.805 6.279 " fill="#FAFAFA" stroke="none" fill-rule="evenodd"></path></svg>