<svg width="24" height="24" viewBox="0 0 24 24" fill="none" xmlns="http://www.w3.org/2000/svg"><path d="M15.295 6.041 C 14.309 6.219,13.465 6.939,13.139 7.881 L 13.022 8.220 13.008 9.550 L 12.994 10.880 7.790 10.880 L 2.585 10.880 2.410 10.965 C 2.150 11.091,2.020 11.309,2.020 11.620 C 2.020 11.931,2.150 12.149,2.410 12.275 L 2.585 12.360 7.790 12.360 L 12.994 12.360 13.008 13.690 L 13.022 15.020 13.139 15.359 C 13.434 16.210,14.104 16.847,15.000 17.126 C 15.248 17.204,15.383 17.219,15.780 17.217 C 16.188 17.214,16.308 17.198,16.580 17.107 C 16.756 17.048,16.988 16.948,17.097 16.884 C 17.447 16.676,21.172 13.790,21.440 13.519 C 21.583 13.374,21.760 13.154,21.833 13.031 C 22.126 12.536,22.266 11.869,22.195 11.300 C 22.117 10.666,21.876 10.163,21.440 9.721 C 21.142 9.420,17.373 6.514,17.040 6.329 C 16.572 6.069,15.823 5.946,15.295 6.041 " fill="#FAFAFA" stroke="none" fill-rule="evenodd"></path></svg>