<svg width="24" height="24" viewBox="0 0 24 24" fill="none" xmlns="http://www.w3.org/2000/svg"><path d="M9.805 6.279 C 9.412 6.374,9.173 6.798,9.281 7.205 C 9.322 7.360,9.516 7.570,10.995 9.060 C 12.683 10.760,12.903 11.004,13.107 11.400 C 13.208 11.596,13.220 11.661,13.220 12.000 C 13.220 12.679,13.157 12.763,10.995 14.940 C 9.516 16.430,9.322 16.640,9.281 16.795 C 9.129 17.365,9.632 17.869,10.205 17.720 C 10.362 17.680,10.560 17.495,12.121 15.928 C 13.908 14.133,14.178 13.824,14.460 13.251 C 14.669 12.826,14.735 12.525,14.735 12.000 C 14.735 11.475,14.669 11.174,14.460 10.749 C 14.182 10.183,13.902 9.861,12.180 8.127 C 11.256 7.196,10.446 6.402,10.380 6.362 C 10.232 6.271,9.984 6.236,9.805 6.279 " fill="#FAFAFA" stroke="none" fill-rule="evenodd"></path></svg>