<svg width="24" height="24" viewBox="0 0 24 24" fill="none" xmlns="http://www.w3.org/2000/svg"><path d="M8.771 3.043 C 6.564 3.136,5.517 3.470,4.554 4.391 C 3.506 5.392,3.165 6.355,3.041 8.660 C 2.988 9.644,2.988 14.356,3.041 15.340 C 3.164 17.628,3.503 18.596,4.527 19.583 C 5.081 20.117,5.578 20.416,6.240 20.613 C 7.313 20.933,8.296 20.999,12.000 20.999 C 15.704 20.999,16.687 20.933,17.760 20.613 C 18.422 20.416,18.919 20.117,19.473 19.583 C 20.043 19.034,20.407 18.452,20.613 17.760 C 20.933 16.687,20.999 15.704,20.999 12.000 C 20.999 8.296,20.933 7.313,20.613 6.240 C 20.404 5.538,20.035 4.953,19.446 4.391 C 18.460 3.449,17.477 3.143,15.100 3.041 C 14.050 2.996,9.863 2.997,8.771 3.043 M13.180 7.362 C 13.352 7.467,15.911 10.053,16.130 10.343 C 16.569 10.923,16.733 11.374,16.733 12.000 C 16.733 12.660,16.556 13.112,16.052 13.748 C 15.916 13.919,15.214 14.648,14.492 15.367 C 13.335 16.519,13.159 16.679,13.005 16.720 C 12.415 16.875,11.930 16.353,12.094 15.740 C 12.116 15.657,12.565 15.177,13.533 14.200 L 14.940 12.780 11.360 12.760 C 7.843 12.740,7.778 12.739,7.641 12.658 C 7.564 12.613,7.448 12.501,7.384 12.409 C 7.286 12.271,7.267 12.203,7.267 12.007 C 7.267 11.721,7.372 11.526,7.612 11.367 L 7.774 11.260 11.357 11.240 L 14.940 11.220 13.533 9.800 C 12.565 8.823,12.116 8.343,12.094 8.260 C 11.974 7.811,12.202 7.378,12.611 7.278 C 12.785 7.236,13.034 7.272,13.180 7.362 " fill="#FAFAFA" stroke="none" fill-rule="evenodd"></path></svg>