<svg width="24" height="24" viewBox="0 0 24 24" fill="none" xmlns="http://www.w3.org/2000/svg"><path d="M8.771 3.043 C 6.564 3.136,5.517 3.470,4.554 4.391 C 3.506 5.392,3.165 6.355,3.041 8.660 C 2.988 9.644,2.988 14.356,3.041 15.340 C 3.164 17.628,3.503 18.596,4.527 19.583 C 5.081 20.117,5.578 20.416,6.240 20.613 C 7.313 20.933,8.296 20.999,12.000 20.999 C 15.704 20.999,16.687 20.933,17.760 20.613 C 18.422 20.416,18.919 20.117,19.473 19.583 C 20.043 19.034,20.407 18.452,20.613 17.760 C 20.933 16.687,20.999 15.704,20.999 12.000 C 20.999 8.296,20.933 7.313,20.613 6.240 C 20.404 5.538,20.035 4.953,19.446 4.391 C 18.460 3.449,17.477 3.143,15.100 3.041 C 14.050 2.996,9.863 2.997,8.771 3.043 M10.380 6.362 C 10.592 6.491,13.771 9.722,14.039 10.080 C 14.333 10.473,14.611 11.034,14.683 11.380 C 14.710 11.512,14.733 11.791,14.733 12.000 C 14.733 12.209,14.710 12.488,14.683 12.620 C 14.611 12.966,14.333 13.527,14.039 13.920 C 13.755 14.300,10.533 17.567,10.340 17.671 C 10.166 17.765,9.812 17.758,9.640 17.657 C 9.424 17.531,9.273 17.288,9.267 17.055 C 9.265 16.948,9.277 16.806,9.294 16.740 C 9.316 16.656,9.838 16.105,11.016 14.920 C 12.698 13.228,13.017 12.865,13.164 12.479 C 13.265 12.214,13.265 11.786,13.164 11.521 C 13.018 11.137,12.696 10.770,11.038 9.100 C 10.121 8.176,9.347 7.375,9.319 7.320 C 9.290 7.265,9.267 7.118,9.267 6.992 C 9.267 6.642,9.483 6.358,9.811 6.278 C 9.984 6.236,10.233 6.272,10.380 6.362 " fill="#FAFAFA" stroke="none" fill-rule="evenodd"></path></svg>