<svg width="24" height="24" viewBox="0 0 24 24" fill="none" xmlns="http://www.w3.org/2000/svg"><path d="M11.120 2.039 C 9.316 2.220,7.707 2.807,6.280 3.806 C 2.738 6.286,1.178 10.759,2.422 14.865 C 2.918 16.499,3.728 17.850,4.939 19.061 C 5.928 20.050,7.038 20.788,8.272 21.278 C 11.634 22.610,15.313 22.080,18.200 19.845 C 18.637 19.507,19.507 18.637,19.845 18.200 C 21.255 16.379,22.000 14.234,22.000 12.000 C 22.000 7.432,18.842 3.387,14.430 2.303 C 13.446 2.062,12.028 1.948,11.120 2.039 M10.380 6.362 C 10.592 6.491,13.771 9.722,14.039 10.080 C 14.333 10.473,14.611 11.034,14.683 11.380 C 14.710 11.512,14.733 11.791,14.733 12.000 C 14.733 12.209,14.710 12.488,14.683 12.620 C 14.611 12.966,14.333 13.527,14.039 13.920 C 13.755 14.300,10.533 17.567,10.340 17.671 C 10.166 17.765,9.812 17.758,9.640 17.657 C 9.424 17.531,9.273 17.288,9.267 17.055 C 9.265 16.948,9.277 16.806,9.294 16.740 C 9.316 16.656,9.838 16.105,11.016 14.920 C 12.698 13.228,13.017 12.865,13.164 12.479 C 13.265 12.214,13.265 11.786,13.164 11.521 C 13.018 11.137,12.696 10.770,11.038 9.100 C 10.121 8.176,9.347 7.375,9.319 7.320 C 9.290 7.265,9.267 7.118,9.267 6.992 C 9.267 6.642,9.483 6.358,9.811 6.278 C 9.984 6.236,10.233 6.272,10.380 6.362 " fill="#FAFAFA" stroke="none" fill-rule="evenodd"></path></svg>