<svg width="24" height="24" viewBox="0 0 24 24" fill="none" xmlns="http://www.w3.org/2000/svg"><path d="M11.120 2.039 C 9.316 2.220,7.707 2.807,6.280 3.806 C 2.738 6.286,1.178 10.759,2.422 14.865 C 2.918 16.499,3.728 17.850,4.939 19.061 C 5.928 20.050,7.038 20.788,8.272 21.278 C 11.634 22.610,15.313 22.080,18.200 19.845 C 18.637 19.507,19.507 18.637,19.845 18.200 C 21.255 16.379,22.000 14.234,22.000 12.000 C 22.000 7.432,18.842 3.387,14.430 2.303 C 13.446 2.062,12.028 1.948,11.120 2.039 M13.180 7.362 C 13.352 7.467,15.911 10.053,16.130 10.343 C 16.569 10.923,16.733 11.374,16.733 12.000 C 16.733 12.660,16.556 13.112,16.052 13.748 C 15.916 13.919,15.214 14.648,14.492 15.367 C 13.335 16.519,13.159 16.679,13.005 16.720 C 12.415 16.875,11.930 16.353,12.094 15.740 C 12.116 15.657,12.565 15.177,13.533 14.200 L 14.940 12.780 11.360 12.760 C 7.843 12.740,7.778 12.739,7.641 12.658 C 7.564 12.613,7.448 12.501,7.384 12.409 C 7.286 12.271,7.267 12.203,7.267 12.007 C 7.267 11.721,7.372 11.526,7.612 11.367 L 7.774 11.260 11.357 11.240 L 14.940 11.220 13.533 9.800 C 12.565 8.823,12.116 8.343,12.094 8.260 C 11.974 7.811,12.202 7.378,12.611 7.278 C 12.785 7.236,13.034 7.272,13.180 7.362 " fill="#FAFAFA" stroke="none" fill-rule="evenodd"></path></svg>