<svg width="32" height="32" viewBox="0 0 32 32" fill="none" xmlns="http://www.w3.org/2000/svg"><path d="M9.928 2.131 C 9.362 2.270,8.624 2.654,8.219 3.021 C 7.867 3.340,3.207 8.526,2.825 9.025 C 2.544 9.392,2.269 9.962,2.120 10.486 L 2.001 10.907 2.001 15.973 C 2.000 20.642,2.007 21.069,2.094 21.407 C 2.225 21.916,2.447 22.425,2.703 22.801 C 2.921 23.122,7.201 27.954,7.913 28.683 C 8.530 29.316,9.124 29.661,10.009 29.901 C 10.353 29.994,10.686 30.000,16.000 30.000 C 21.211 30.000,21.652 29.993,21.973 29.906 C 22.748 29.695,23.329 29.393,23.818 28.947 C 24.150 28.644,28.821 23.436,29.175 22.975 C 29.456 22.608,29.731 22.038,29.880 21.514 L 29.999 21.093 29.999 16.000 L 29.999 10.907 29.880 10.486 C 29.731 9.962,29.456 9.392,29.175 9.025 C 28.795 8.529,24.134 3.341,23.781 3.020 C 23.373 2.649,22.558 2.236,21.989 2.111 C 21.652 2.037,20.917 2.027,15.963 2.031 C 10.710 2.034,10.293 2.041,9.928 2.131 M21.787 4.634 C 22.177 4.821,22.070 4.710,24.926 7.914 C 26.313 9.469,27.300 10.621,27.372 10.767 L 27.493 11.013 27.493 16.000 L 27.493 20.987 27.372 21.234 C 27.222 21.537,22.306 27.053,22.000 27.261 C 21.568 27.554,21.729 27.547,16.000 27.547 C 10.271 27.547,10.432 27.554,10.000 27.261 C 9.694 27.053,4.778 21.537,4.628 21.234 L 4.507 20.987 4.507 16.000 L 4.507 11.013 4.628 10.767 C 4.700 10.621,5.687 9.469,7.074 7.914 C 9.930 4.710,9.823 4.821,10.213 4.634 L 10.533 4.480 16.000 4.480 L 21.467 4.480 21.787 4.634 M11.719 6.724 C 11.495 6.778,11.180 6.933,11.004 7.078 C 10.940 7.131,10.009 8.157,8.936 9.360 C 7.581 10.878,6.940 11.636,6.839 11.840 L 6.693 12.133 6.693 16.000 L 6.693 19.867 6.839 20.160 C 6.940 20.363,7.592 21.132,8.955 22.658 C 10.038 23.870,11.002 24.920,11.098 24.990 C 11.544 25.319,11.350 25.307,16.000 25.307 C 20.650 25.307,20.456 25.319,20.902 24.990 C 20.998 24.920,21.962 23.870,23.045 22.658 C 24.408 21.132,25.060 20.363,25.161 20.160 L 25.307 19.867 25.307 16.000 L 25.307 12.133 25.161 11.840 C 25.060 11.637,24.410 10.870,23.052 9.350 C 21.972 8.141,21.025 7.103,20.947 7.041 C 20.869 6.980,20.690 6.876,20.549 6.811 L 20.293 6.693 16.107 6.685 C 13.769 6.680,11.831 6.697,11.719 6.724 M16.740 12.040 C 17.132 13.353,17.480 14.454,17.513 14.487 C 17.546 14.520,18.647 14.868,19.960 15.260 C 21.273 15.651,22.347 15.985,22.347 16.000 C 22.347 16.015,21.273 16.349,19.960 16.740 C 18.647 17.132,17.546 17.480,17.513 17.513 C 17.480 17.546,17.132 18.647,16.740 19.960 C 16.349 21.273,16.015 22.347,16.000 22.347 C 15.985 22.347,15.651 21.273,15.260 19.960 C 14.868 18.647,14.520 17.546,14.487 17.513 C 14.454 17.480,13.353 17.132,12.040 16.740 C 10.727 16.349,9.653 16.015,9.653 16.000 C 9.653 15.985,10.727 15.651,12.040 15.260 C 13.353 14.868,14.454 14.520,14.487 14.487 C 14.520 14.454,14.868 13.353,15.260 12.040 C 15.651 10.727,15.985 9.653,16.000 9.653 C 16.015 9.653,16.349 10.727,16.740 12.040 " fill="#474748" stroke="none" fill-rule="evenodd"></path></svg>