<svg width="24" height="24" viewBox="0 0 24 24" fill="none" xmlns="http://www.w3.org/2000/svg"><path d="M20.497 0.278 C 20.308 0.323,20.146 0.433,20.038 0.591 L 19.940 0.734 19.920 2.684 C 19.909 3.756,19.889 4.644,19.875 4.658 C 19.862 4.672,19.791 4.615,19.718 4.531 C 19.503 4.285,18.888 3.737,18.488 3.434 C 16.447 1.888,13.939 1.129,11.383 1.282 C 10.629 1.328,10.118 1.402,9.450 1.564 C 7.393 2.063,5.531 3.164,4.086 4.735 C 2.588 6.364,1.666 8.335,1.334 10.620 C 1.238 11.284,1.238 12.716,1.334 13.380 C 1.711 15.974,2.866 18.195,4.728 19.908 C 6.364 21.413,8.332 22.334,10.620 22.666 C 11.284 22.762,12.716 22.762,13.380 22.666 C 16.573 22.202,19.227 20.538,20.981 17.900 C 22.058 16.280,22.716 14.194,22.734 12.340 C 22.741 11.696,22.705 11.592,22.409 11.384 C 22.269 11.285,22.204 11.267,22.000 11.267 C 21.796 11.267,21.731 11.285,21.591 11.384 C 21.312 11.580,21.272 11.688,21.235 12.354 C 21.191 13.137,21.105 13.709,20.936 14.360 C 20.271 16.917,18.471 19.121,16.100 20.281 C 15.184 20.729,14.406 20.980,13.407 21.148 C 12.800 21.250,11.200 21.250,10.593 21.148 C 9.594 20.980,8.816 20.729,7.900 20.281 C 6.987 19.835,6.271 19.324,5.526 18.589 C 4.314 17.392,3.479 15.958,3.064 14.360 C 2.836 13.484,2.781 13.025,2.781 12.000 C 2.781 11.336,2.800 10.979,2.852 10.640 C 3.478 6.599,6.597 3.480,10.640 2.852 C 11.285 2.752,12.761 2.753,13.380 2.853 C 15.375 3.178,17.090 4.043,18.490 5.429 C 18.832 5.768,18.910 5.861,18.870 5.886 C 18.864 5.890,17.932 5.903,16.797 5.916 L 14.734 5.940 14.586 6.040 C 14.422 6.151,14.240 6.471,14.240 6.649 C 14.240 6.916,14.494 7.279,14.737 7.359 C 14.933 7.424,18.495 7.428,18.960 7.364 C 19.704 7.261,20.193 7.041,20.617 6.617 C 21.041 6.193,21.262 5.703,21.363 4.960 C 21.429 4.482,21.424 0.908,21.357 0.732 C 21.236 0.410,20.833 0.198,20.497 0.278 " fill="#FAFAFA" stroke="none" fill-rule="evenodd"></path></svg>