<svg width="24" height="24" viewBox="0 0 24 24" fill="none" xmlns="http://www.w3.org/2000/svg"><path d="M3.180 0.260 C 3.158 0.267,3.090 0.284,3.029 0.298 C 2.876 0.331,2.614 0.578,2.561 0.736 C 2.494 0.941,2.490 4.569,2.557 5.000 C 2.669 5.718,2.884 6.189,3.295 6.611 C 3.701 7.028,4.216 7.261,4.960 7.364 C 5.425 7.428,8.987 7.424,9.183 7.359 C 9.426 7.279,9.680 6.916,9.680 6.649 C 9.680 6.471,9.498 6.151,9.334 6.040 L 9.186 5.940 7.156 5.920 C 6.040 5.909,5.116 5.890,5.104 5.877 C 5.069 5.842,5.856 5.078,6.260 4.754 C 7.483 3.774,8.985 3.120,10.620 2.853 C 11.239 2.753,12.715 2.752,13.360 2.852 C 17.403 3.480,20.526 6.603,21.147 10.640 C 21.246 11.282,21.246 12.718,21.147 13.360 C 20.684 16.368,18.791 18.965,16.100 20.281 C 15.184 20.729,14.406 20.980,13.407 21.148 C 12.800 21.250,11.200 21.250,10.593 21.148 C 9.594 20.980,8.816 20.729,7.900 20.281 C 6.161 19.431,4.707 18.007,3.801 16.267 C 3.169 15.056,2.846 13.834,2.765 12.361 C 2.728 11.688,2.689 11.581,2.409 11.384 C 2.269 11.285,2.204 11.267,2.000 11.267 C 1.796 11.267,1.731 11.285,1.591 11.384 C 1.295 11.592,1.259 11.696,1.266 12.340 C 1.284 14.194,1.942 16.280,3.019 17.900 C 4.774 20.540,7.425 22.202,10.620 22.666 C 11.284 22.762,12.716 22.762,13.380 22.666 C 15.669 22.333,17.686 21.388,19.274 19.903 C 21.173 18.128,22.288 15.983,22.666 13.380 C 22.762 12.716,22.762 11.284,22.666 10.620 C 22.165 7.168,20.230 4.309,17.258 2.628 C 14.685 1.173,11.508 0.862,8.660 1.786 C 7.088 2.297,5.587 3.219,4.416 4.394 L 4.052 4.759 4.026 4.454 C 4.012 4.285,4.000 3.405,4.000 2.497 C 4.000 1.427,3.985 0.806,3.957 0.733 C 3.906 0.597,3.737 0.412,3.600 0.342 C 3.492 0.287,3.245 0.238,3.180 0.260 " fill="#FAFAFA" stroke="none" fill-rule="evenodd"></path></svg>