<svg width="21" height="22" viewBox="0 0 21 22" fill="none" xmlns="http://www.w3.org/2000/svg"><path d="M17.524 0.071 C 17.412 0.089,17.192 0.148,17.034 0.203 C 16.713 0.315,1.884 8.335,1.519 8.595 C 0.417 9.377,0.008 10.870,0.537 12.181 C 0.724 12.644,1.107 13.127,1.520 13.422 C 1.806 13.626,16.525 21.609,16.888 21.757 C 17.317 21.931,17.687 21.994,18.147 21.969 C 18.602 21.944,18.848 21.883,19.245 21.698 C 20.001 21.344,20.570 20.726,20.828 19.976 C 20.882 19.817,20.943 19.585,20.963 19.460 C 21.014 19.143,21.014 2.872,20.963 2.555 C 20.807 1.580,20.164 0.744,19.245 0.318 C 19.084 0.244,18.850 0.157,18.725 0.125 C 18.453 0.055,17.807 0.026,17.524 0.071 " fill="#38383A" stroke="none" fill-rule="evenodd"></path></svg>