<svg width="21" height="22" viewBox="0 0 21 22" fill="none" xmlns="http://www.w3.org/2000/svg"><path d="M2.468 0.087 C 1.409 0.284,0.513 1.047,0.172 2.039 C 0.118 2.198,0.057 2.430,0.037 2.555 C -0.014 2.872,-0.014 19.143,0.037 19.460 C 0.193 20.434,0.833 21.267,1.755 21.698 C 2.152 21.883,2.398 21.944,2.853 21.969 C 3.313 21.994,3.683 21.931,4.113 21.756 C 4.475 21.609,19.194 13.626,19.480 13.422 C 19.961 13.079,20.358 12.527,20.546 11.942 C 20.948 10.692,20.515 9.336,19.478 8.593 C 19.128 8.343,4.290 0.316,3.971 0.205 C 3.489 0.037,2.961 -0.005,2.468 0.087 " fill="#38383A" stroke="none" fill-rule="evenodd"></path></svg>