<svg xmlns="http://www.w3.org/2000/svg" viewBox="0 0 22 22" fill="none" stroke="currentColor" stroke-width="2" stroke-linecap="round" stroke-linejoin="round"><path d="M8.323 1.800 C 6.998 1.949,5.651 2.505,4.565 3.351 C 4.271 3.580,3.671 4.172,3.410 4.491 C 2.756 5.292,2.239 6.326,1.978 7.357 C 1.683 8.518,1.683 9.815,1.978 10.976 C 2.230 11.973,2.745 13.017,3.361 13.784 C 3.596 14.077,4.192 14.677,4.492 14.923 C 5.505 15.754,6.836 16.330,8.174 16.516 C 8.700 16.590,9.633 16.590,10.159 16.516 C 11.269 16.362,12.384 15.937,13.314 15.314 L 13.666 15.078 16.137 17.551 C 17.496 18.912,18.679 20.067,18.766 20.118 C 18.952 20.229,19.300 20.269,19.533 20.206 C 19.742 20.150,19.977 19.963,20.111 19.747 C 20.212 19.584,20.222 19.539,20.222 19.253 C 20.222 18.977,20.210 18.918,20.123 18.773 C 20.068 18.681,18.937 17.522,17.551 16.137 L 15.078 13.666 15.314 13.314 C 16.486 11.564,16.868 9.378,16.356 7.357 C 15.898 5.551,14.788 3.996,13.218 2.960 C 12.285 2.344,11.105 1.923,9.966 1.799 C 9.557 1.754,8.726 1.755,8.323 1.800 M9.955 3.818 C 11.546 4.027,13.034 5.039,13.855 6.470 C 14.339 7.314,14.561 8.163,14.561 9.167 C 14.561 10.171,14.339 11.019,13.854 11.865 C 12.573 14.100,9.862 15.123,7.425 14.292 C 5.535 13.647,4.152 12.011,3.826 10.032 C 3.760 9.629,3.752 8.781,3.812 8.378 C 4.097 6.439,5.447 4.772,7.278 4.096 C 8.134 3.781,8.991 3.692,9.955 3.818 " stroke="none" fill-rule="evenodd" fill="black"></path></svg>