<svg xmlns="http://www.w3.org/2000/svg" viewBox="0 0 28 29" fill="currentColor"><path d="M11.573 1.747 C 6.647 2.375,2.873 6.234,2.382 11.147 C 1.946 15.506,4.348 19.742,8.330 21.634 C 9.760 22.314,11.199 22.633,12.833 22.633 C 14.539 22.633,15.970 22.302,17.477 21.559 C 21.181 19.734,23.466 15.920,23.320 11.807 C 23.141 6.769,19.438 2.583,14.466 1.797 C 13.804 1.692,12.218 1.664,11.573 1.747 M11.122 4.450 C 11.571 4.638,11.759 5.300,11.478 5.710 C 11.323 5.937,11.127 6.048,10.733 6.134 C 10.256 6.238,9.831 6.379,9.497 6.546 C 8.041 7.271,7.094 8.536,6.764 10.197 C 6.719 10.425,6.673 10.512,6.516 10.670 C 6.102 11.083,5.562 11.044,5.203 10.574 C 5.037 10.355,5.010 10.094,5.105 9.622 C 5.548 7.437,7.124 5.585,9.261 4.738 C 10.030 4.434,10.798 4.315,11.122 4.450 M21.817 20.693 C 21.527 20.823,21.282 21.188,21.282 21.490 C 21.282 21.811,21.428 21.974,23.947 24.484 C 26.289 26.817,26.448 26.966,26.635 26.996 C 27.072 27.067,27.458 26.870,27.632 26.487 C 27.748 26.230,27.742 26.055,27.605 25.781 C 27.451 25.473,22.793 20.809,22.530 20.699 C 22.319 20.611,22.006 20.608,21.817 20.693 " stroke="none" fill-rule="evenodd"></path></svg>