<svg width="29" height="28" viewBox="0 0 29 28" fill="none" xmlns="http://www.w3.org/2000/svg"><path d="M21.025 2.259 C 20.759 2.290,9.822 4.390,9.514 4.469 C 9.081 4.580,8.517 4.812,8.098 5.051 C 4.926 6.860,4.008 10.990,6.123 13.928 C 6.274 14.137,6.608 14.514,6.867 14.765 C 7.800 15.670,8.859 16.204,10.142 16.415 C 10.715 16.509,11.695 16.482,12.228 16.357 C 12.428 16.311,12.667 16.271,12.760 16.269 C 12.923 16.264,12.929 16.271,12.925 16.433 C 12.922 16.526,12.882 16.766,12.836 16.965 C 12.711 17.500,12.685 18.479,12.779 19.055 C 12.934 19.995,13.308 20.900,13.859 21.666 C 14.196 22.133,14.943 22.860,15.398 23.162 C 16.081 23.616,16.929 23.968,17.714 24.124 C 18.221 24.224,19.495 24.211,20.010 24.099 C 22.297 23.605,24.047 21.990,24.704 19.768 C 24.755 19.596,25.278 16.953,25.866 13.896 C 27.025 7.873,27.053 7.690,26.923 6.806 C 26.587 4.504,24.735 2.641,22.439 2.295 C 21.997 2.228,21.411 2.213,21.025 2.259 " fill="#8D8D92" stroke="none" fill-rule="evenodd"></path></svg>