<svg xmlns="http://www.w3.org/2000/svg" viewBox="0 0 28 28" fill="currentColor"><path d="M19.192 2.940 C 19.025 3.009,19.067 3.033,19.353 3.033 C 19.517 3.033,19.602 3.017,19.574 2.990 C 19.502 2.920,19.305 2.894,19.192 2.940 M19.992 3.558 C 20.565 4.441,20.838 5.201,20.953 6.230 C 21.003 6.686,21.007 7.553,20.960 8.009 L 20.930 8.295 20.487 7.924 C 19.364 6.984,17.896 6.226,16.530 5.880 L 16.330 5.829 16.437 5.638 C 16.627 5.299,17.300 4.558,18.037 3.877 L 18.457 3.489 18.083 3.760 C 16.830 4.671,16.088 5.249,15.903 5.460 L 15.692 5.701 15.231 5.645 C 14.578 5.565,13.245 5.578,12.623 5.669 C 11.948 5.769,11.245 5.943,10.635 6.160 L 10.140 6.336 9.903 6.199 C 9.701 6.083,7.353 5.087,7.281 5.087 C 7.268 5.087,7.506 5.224,7.811 5.392 C 8.649 5.852,9.567 6.472,9.567 6.577 C 9.567 6.598,9.422 6.691,9.246 6.784 C 8.052 7.411,6.759 8.535,5.976 9.626 C 5.888 9.748,5.802 9.832,5.783 9.812 C 5.733 9.757,5.473 8.700,5.414 8.307 C 5.385 8.114,5.361 7.683,5.361 7.348 C 5.362 6.683,5.431 6.258,5.649 5.579 C 5.723 5.349,5.776 5.154,5.768 5.146 C 5.743 5.121,5.314 6.158,5.154 6.635 C 4.972 7.176,4.832 7.818,4.756 8.468 C 4.692 9.005,4.724 10.824,4.805 11.286 C 4.854 11.566,4.849 11.601,4.718 11.941 C 4.357 12.877,4.156 13.935,4.113 15.128 L 4.083 15.952 3.173 16.555 C 0.609 18.254,-0.302 19.327,0.088 20.187 C 0.261 20.567,0.734 20.813,1.427 20.881 C 1.996 20.938,3.305 20.764,4.595 20.459 C 4.981 20.369,5.391 20.283,5.507 20.270 C 5.725 20.244,7.529 19.735,8.097 19.538 C 9.387 19.090,11.850 17.934,13.762 16.878 C 14.429 16.509,14.697 16.332,14.962 16.085 C 15.936 15.178,16.420 14.180,16.565 12.778 C 16.620 12.251,16.565 11.541,16.429 11.019 C 16.380 10.829,16.355 10.693,16.375 10.715 C 16.395 10.738,16.512 10.901,16.636 11.078 C 17.255 11.962,18.244 12.765,19.122 13.096 C 19.614 13.282,20.276 13.440,20.748 13.485 C 21.319 13.539,22.110 13.471,22.354 13.346 C 22.657 13.192,22.670 13.242,22.374 13.420 C 21.480 13.958,20.671 14.868,20.303 15.751 C 20.018 16.433,19.951 16.796,19.952 17.640 C 19.953 18.380,20.014 18.814,20.187 19.297 C 20.205 19.348,20.109 19.235,19.974 19.045 C 19.474 18.344,18.724 17.658,18.060 17.296 C 17.465 16.972,16.581 16.710,16.075 16.708 C 15.856 16.707,15.815 16.727,15.450 17.016 C 14.932 17.426,14.357 17.981,13.889 18.526 C 12.689 19.921,12.397 20.272,12.103 20.673 C 11.679 21.252,11.289 21.869,10.902 22.573 C 10.599 23.125,10.059 24.263,10.089 24.289 C 10.145 24.340,11.172 24.675,11.594 24.780 C 12.771 25.076,14.206 25.156,15.374 24.992 C 19.859 24.364,23.312 20.916,23.874 16.505 C 24.015 15.394,23.921 13.929,23.640 12.888 L 23.573 12.640 23.784 12.515 C 25.039 11.771,26.491 10.705,27.163 10.035 C 27.779 9.421,27.977 9.068,27.977 8.584 C 27.976 8.327,27.955 8.244,27.849 8.084 C 27.357 7.340,25.768 7.337,22.799 8.076 C 22.473 8.158,22.190 8.206,22.170 8.184 C 22.151 8.162,22.099 7.965,22.054 7.747 C 21.806 6.537,21.309 5.307,20.709 4.414 C 20.492 4.092,19.791 3.173,19.761 3.173 C 19.751 3.173,19.855 3.347,19.992 3.558 " stroke="none" fill-rule="evenodd"></path></svg>