<svg xmlns="http://www.w3.org/2000/svg" viewBox="0 0 22 22" fill="currentColor"><path d="M10.695 0.163 C 10.498 0.233,10.356 0.359,10.246 0.561 C 10.215 0.618,10.148 0.906,10.098 1.202 C 9.986 1.866,9.839 2.453,9.646 3.014 C 8.577 6.113,6.103 8.586,3.007 9.649 C 2.379 9.865,1.482 10.081,0.972 10.139 C 0.703 10.170,0.493 10.258,0.352 10.399 C -0.044 10.795,0.065 11.501,0.561 11.757 C 0.618 11.787,0.905 11.851,1.198 11.900 C 3.986 12.365,6.381 13.804,8.062 16.023 C 9.131 17.436,9.790 18.981,10.098 20.798 C 10.195 21.368,10.235 21.482,10.400 21.647 C 10.578 21.824,10.701 21.870,11.000 21.870 C 11.299 21.870,11.422 21.824,11.600 21.647 C 11.765 21.482,11.805 21.368,11.902 20.797 C 12.290 18.496,13.300 16.519,14.909 14.909 C 16.519 13.300,18.513 12.282,20.802 11.900 C 21.095 11.851,21.382 11.787,21.439 11.757 C 21.935 11.501,22.044 10.795,21.648 10.399 C 21.507 10.258,21.297 10.170,21.028 10.139 C 20.518 10.081,19.621 9.865,18.993 9.649 C 17.614 9.175,16.295 8.388,15.236 7.408 C 13.436 5.740,12.318 3.660,11.902 1.202 C 11.800 0.600,11.764 0.510,11.555 0.321 C 11.329 0.116,10.997 0.055,10.695 0.163 " stroke="none" fill-rule="evenodd"></path></svg>