<svg width="24" height="24" viewBox="0 0 24 24" fill="none" xmlns="http://www.w3.org/2000/svg"><path d="M16.575 3.299 C 16.049 3.394,15.554 3.728,14.940 4.400 C 14.676 4.689,13.095 6.653,12.552 7.366 C 12.261 7.747,12.204 7.920,12.279 8.198 C 12.338 8.416,12.584 8.662,12.802 8.721 C 12.999 8.774,13.220 8.744,13.387 8.642 C 13.453 8.602,13.918 8.050,14.420 7.415 C 15.439 6.127,15.980 5.468,16.136 5.323 L 16.240 5.226 16.240 11.643 C 16.240 16.201,16.253 18.106,16.285 18.219 C 16.344 18.432,16.578 18.660,16.798 18.719 C 17.198 18.827,17.610 18.599,17.718 18.209 C 17.746 18.109,17.760 15.934,17.760 11.643 L 17.760 5.226 17.864 5.323 C 18.020 5.468,18.561 6.127,19.580 7.415 C 20.082 8.050,20.547 8.602,20.613 8.642 C 21.145 8.966,21.843 8.488,21.738 7.871 C 21.720 7.761,21.629 7.603,21.448 7.366 C 20.884 6.626,19.320 4.685,19.059 4.402 C 18.418 3.704,17.956 3.396,17.407 3.297 C 17.038 3.232,16.944 3.232,16.575 3.299 " fill="#FAFAFA" stroke="none" fill-rule="evenodd"></path></svg>