<svg width="24" height="24" viewBox="0 0 24 24" fill="none" xmlns="http://www.w3.org/2000/svg"><path d="M8.771 3.043 C 6.564 3.136,5.517 3.470,4.554 4.391 C 3.506 5.392,3.165 6.355,3.041 8.660 C 2.988 9.644,2.988 14.356,3.041 15.340 C 3.164 17.628,3.503 18.596,4.527 19.583 C 5.081 20.117,5.578 20.416,6.240 20.613 C 7.313 20.933,8.296 20.999,12.000 20.999 C 15.704 20.999,16.687 20.933,17.760 20.613 C 18.422 20.416,18.919 20.117,19.473 19.583 C 20.043 19.034,20.407 18.452,20.613 17.760 C 20.933 16.687,20.999 15.704,20.999 12.000 C 20.999 8.296,20.933 7.313,20.613 6.240 C 20.404 5.538,20.035 4.953,19.446 4.391 C 18.460 3.449,17.477 3.143,15.100 3.041 C 14.050 2.996,9.863 2.997,8.771 3.043 M15.697 6.300 C 16.046 6.374,16.338 6.547,16.682 6.884 C 16.960 7.156,18.556 9.128,18.671 9.340 C 18.839 9.653,18.679 10.158,18.360 10.320 C 18.165 10.419,17.854 10.424,17.659 10.332 C 17.554 10.282,17.323 10.020,16.808 9.368 L 16.100 8.474 16.080 12.530 L 16.060 16.587 15.946 16.752 C 15.632 17.205,14.947 17.176,14.686 16.700 C 14.626 16.591,14.618 16.192,14.600 12.522 L 14.580 8.463 13.880 9.339 C 13.495 9.821,13.130 10.251,13.070 10.295 C 12.909 10.413,12.507 10.430,12.320 10.328 C 12.023 10.166,11.865 9.790,11.955 9.459 C 12.010 9.259,13.502 7.368,13.977 6.897 C 14.541 6.337,15.046 6.162,15.697 6.300 M8.950 6.982 C 9.130 7.057,9.228 7.142,9.314 7.300 C 9.374 7.409,9.382 7.808,9.400 11.478 L 9.420 15.537 10.120 14.661 C 10.505 14.179,10.869 13.749,10.929 13.705 C 11.097 13.583,11.462 13.569,11.673 13.676 C 11.980 13.833,12.138 14.200,12.045 14.541 C 12.014 14.651,11.749 15.017,11.175 15.740 C 10.286 16.859,9.819 17.356,9.496 17.529 C 9.033 17.777,8.534 17.814,8.059 17.636 C 7.794 17.537,7.370 17.210,7.100 16.897 C 6.728 16.465,5.395 14.781,5.330 14.660 C 5.228 14.471,5.244 14.168,5.368 13.958 C 5.505 13.724,5.723 13.600,6.000 13.600 C 6.348 13.600,6.440 13.680,7.206 14.648 L 7.900 15.527 7.920 11.472 C 7.939 7.703,7.945 7.409,8.010 7.310 C 8.239 6.960,8.598 6.834,8.950 6.982 " fill="#FAFAFA" stroke="none" fill-rule="evenodd"></path></svg>