<svg width="20" height="20" viewBox="0 0 20 20" fill="none" xmlns="http://www.w3.org/2000/svg"><path d="M18.933 2.274 C 18.656 2.335,0.787 8.667,0.512 8.801 C -0.008 9.054,-0.129 9.352,0.143 9.703 C 0.364 9.988,0.458 10.024,2.920 10.769 C 4.176 11.148,5.210 11.465,5.217 11.473 C 5.225 11.480,5.477 12.213,5.779 13.102 C 6.990 16.671,7.004 16.709,7.219 16.897 C 7.351 17.014,7.547 17.036,7.708 16.952 C 7.758 16.926,8.445 16.377,9.234 15.733 C 10.057 15.061,10.689 14.568,10.714 14.578 C 10.739 14.587,11.758 15.286,12.980 16.130 C 14.640 17.277,15.244 17.677,15.373 17.715 C 15.593 17.781,15.979 17.781,16.169 17.716 C 16.357 17.652,16.615 17.455,16.736 17.283 C 16.820 17.163,16.987 16.440,18.401 10.033 C 19.266 6.119,19.981 2.863,19.990 2.797 C 20.018 2.601,19.906 2.392,19.727 2.305 C 19.563 2.226,19.212 2.212,18.933 2.274 M16.934 5.586 C 16.982 5.712,16.979 5.722,16.825 5.889 C 16.651 6.078,14.110 8.154,9.817 11.615 C 9.047 12.236,8.390 12.768,8.358 12.798 C 8.310 12.843,8.270 13.072,8.151 13.985 C 8.007 15.091,8.002 15.118,7.914 15.194 C 7.826 15.270,7.696 15.274,7.622 15.202 C 7.584 15.164,7.388 14.609,6.832 12.961 C 6.354 11.546,6.352 11.538,6.405 11.428 C 6.452 11.329,7.002 11.005,11.471 8.445 C 14.228 6.866,16.528 5.559,16.583 5.540 C 16.638 5.521,16.732 5.504,16.792 5.503 C 16.880 5.501,16.908 5.517,16.934 5.586 " fill="#8D8D92" stroke="none" fill-rule="evenodd"></path></svg>