<svg width="22" height="22" viewBox="0 0 22 22" fill="none" xmlns="http://www.w3.org/2000/svg"><path d="M5.408 3.012 C 4.125 3.135,2.904 3.825,2.115 4.873 C 1.540 5.637,1.225 6.485,1.152 7.463 C 1.118 7.918,1.180 8.256,1.366 8.627 C 1.589 9.071,1.855 9.315,2.439 9.610 C 2.987 9.887,3.172 10.037,3.330 10.333 C 3.627 10.890,3.503 11.630,3.046 12.033 C 2.954 12.114,2.722 12.255,2.530 12.347 C 1.872 12.660,1.566 12.941,1.325 13.451 C 1.114 13.899,1.090 14.442,1.249 15.225 C 1.477 16.352,2.111 17.352,3.043 18.054 C 3.623 18.491,4.213 18.759,4.968 18.930 C 5.265 18.997,5.459 19.006,6.881 19.020 L 8.464 19.036 8.476 18.107 L 8.488 17.178 8.586 17.013 C 8.844 16.573,9.487 16.570,9.745 17.008 L 9.845 17.178 9.857 18.106 L 9.869 19.033 13.285 19.020 C 16.589 19.008,16.713 19.005,17.032 18.932 C 18.016 18.704,18.791 18.285,19.455 17.622 C 20.282 16.794,20.757 15.742,20.848 14.533 C 20.879 14.123,20.821 13.761,20.675 13.451 C 20.434 12.941,20.128 12.660,19.470 12.347 C 19.278 12.255,19.046 12.114,18.954 12.033 C 18.497 11.630,18.373 10.890,18.670 10.333 C 18.828 10.037,19.013 9.887,19.561 9.610 C 20.121 9.328,20.404 9.075,20.611 8.672 C 20.804 8.296,20.845 8.108,20.842 7.627 C 20.825 5.541,19.344 3.670,17.286 3.135 C 16.713 2.986,16.292 2.970,12.992 2.970 L 9.869 2.970 9.857 3.896 L 9.845 4.822 9.748 4.987 C 9.486 5.432,8.847 5.432,8.586 4.987 L 8.488 4.822 8.476 3.896 L 8.464 2.970 7.101 2.975 C 6.352 2.978,5.590 2.994,5.408 3.012 M9.443 6.962 C 9.610 7.038,9.776 7.216,9.818 7.364 C 9.833 7.418,9.845 7.976,9.845 8.604 L 9.845 9.747 9.734 9.904 C 9.582 10.121,9.417 10.210,9.167 10.210 C 8.917 10.210,8.751 10.121,8.599 9.904 L 8.488 9.747 8.488 8.604 C 8.488 7.976,8.501 7.418,8.516 7.364 C 8.583 7.123,8.900 6.895,9.167 6.895 C 9.237 6.895,9.362 6.925,9.443 6.962 M9.538 11.899 C 9.611 11.946,9.710 12.048,9.758 12.125 C 9.845 12.265,9.845 12.267,9.845 13.438 C 9.845 14.759,9.849 14.739,9.557 14.974 C 9.431 15.077,9.391 15.088,9.167 15.088 C 8.942 15.088,8.903 15.077,8.776 14.974 C 8.485 14.739,8.488 14.759,8.488 13.438 C 8.488 12.275,8.489 12.264,8.573 12.128 C 8.787 11.785,9.207 11.685,9.538 11.899 " fill="#8D8D92" stroke="none" fill-rule="evenodd"></path></svg>