<svg xmlns="http://www.w3.org/2000/svg" viewBox="0 0 46 46" fill="currentColor"><path d="M9.974 1.080 C 9.873 1.120,8.626 2.084,7.204 3.222 C 4.586 5.316,4.440 5.459,4.324 6.036 C 4.300 6.159,4.318 6.401,4.365 6.576 C 4.588 7.404,5.495 7.871,6.259 7.552 C 6.410 7.489,7.681 6.520,9.083 5.400 C 11.945 3.111,12.000 3.052,11.945 2.294 C 11.907 1.774,11.638 1.360,11.188 1.131 C 10.903 0.985,10.276 0.959,9.974 1.080 M34.812 1.131 C 34.362 1.360,34.093 1.774,34.055 2.294 C 34.000 3.052,34.055 3.111,36.917 5.400 C 38.319 6.520,39.590 7.489,39.741 7.552 C 40.775 7.984,41.920 6.987,41.635 5.904 C 41.585 5.714,41.468 5.465,41.376 5.350 C 41.153 5.073,36.370 1.259,36.060 1.112 C 35.735 0.957,35.135 0.967,34.812 1.131 M20.777 3.000 C 18.333 3.247,15.846 4.006,13.493 5.222 C 4.123 10.069,-0.062 21.336,3.871 31.127 C 6.298 37.167,11.443 41.724,17.714 43.386 C 27.028 45.854,36.833 41.532,41.257 33.006 C 44.568 26.625,44.360 19.041,40.707 12.957 C 37.342 7.352,31.508 3.625,25.114 2.996 C 24.150 2.901,21.732 2.903,20.777 3.000 M23.706 14.585 C 23.887 14.687,24.095 14.898,24.215 15.103 L 24.418 15.448 24.418 20.048 C 24.418 24.599,24.416 24.655,24.245 25.247 C 23.896 26.449,23.647 26.802,21.613 28.958 C 20.008 30.661,19.719 30.891,19.183 30.895 C 18.679 30.898,18.124 30.556,17.883 30.093 C 17.700 29.741,17.730 29.125,17.948 28.764 C 18.049 28.597,18.787 27.765,19.588 26.917 C 20.389 26.068,21.148 25.193,21.275 24.973 L 21.505 24.572 21.543 20.010 L 21.582 15.448 21.772 15.116 C 22.156 14.446,23.031 14.205,23.706 14.585 " stroke="none" fill-rule="evenodd"></path></svg>