<svg width="24" height="24" viewBox="0 0 24 24" fill="none" xmlns="http://www.w3.org/2000/svg"><path d="M7.015 4.277 C 6.946 4.294,6.838 4.345,6.775 4.391 C 6.553 4.551,4.050 7.103,3.844 7.379 C 3.155 8.301,3.059 9.297,3.572 10.207 C 3.816 10.640,4.190 11.057,5.527 12.387 C 6.666 13.520,6.841 13.679,6.995 13.720 C 7.566 13.870,8.071 13.365,7.919 12.795 C 7.878 12.641,7.703 12.449,6.466 11.200 L 5.060 9.780 9.680 9.768 C 14.586 9.756,14.655 9.758,15.259 9.948 C 17.285 10.583,18.546 12.644,18.181 14.725 C 17.929 16.165,16.907 17.430,15.584 17.938 C 14.811 18.235,15.192 18.214,10.237 18.238 L 5.774 18.260 5.605 18.372 C 5.311 18.566,5.192 18.873,5.281 19.204 C 5.341 19.428,5.570 19.658,5.792 19.718 C 5.915 19.751,7.149 19.759,10.330 19.749 C 15.186 19.732,14.933 19.746,15.800 19.456 C 17.809 18.784,19.287 17.080,19.666 15.000 C 19.759 14.486,19.759 13.514,19.666 13.000 C 19.233 10.619,17.408 8.802,14.980 8.332 C 14.655 8.270,14.161 8.261,9.840 8.241 L 5.060 8.220 6.466 6.800 C 7.703 5.551,7.878 5.359,7.919 5.205 C 8.006 4.879,7.888 4.564,7.612 4.385 C 7.441 4.275,7.201 4.231,7.015 4.277 " fill="#FAFAFA" stroke="none" fill-rule="evenodd"></path></svg>