<svg width="24" height="24" viewBox="0 0 24 24" fill="none" xmlns="http://www.w3.org/2000/svg"><path d="M11.616 9.280 C 11.235 9.333,11.047 9.394,10.677 9.584 C 10.126 9.868,9.600 10.333,7.913 12.027 C 6.504 13.442,6.321 13.639,6.280 13.795 C 6.130 14.366,6.635 14.871,7.205 14.719 C 7.360 14.678,7.570 14.485,9.060 13.004 C 11.220 10.859,11.324 10.780,12.000 10.780 C 12.676 10.780,12.780 10.859,14.940 13.004 C 16.430 14.485,16.640 14.678,16.795 14.719 C 17.365 14.871,17.869 14.367,17.720 13.795 C 17.680 13.638,17.496 13.441,15.967 11.917 C 14.205 10.160,13.845 9.844,13.274 9.557 C 12.784 9.311,12.155 9.206,11.616 9.280 " fill="#FAFAFA" stroke="none" fill-rule="evenodd"></path></svg>