<svg width="24" height="24" viewBox="0 0 24 24" fill="none" xmlns="http://www.w3.org/2000/svg"><path d="M11.595 2.280 C 11.035 2.369,10.473 2.649,10.088 3.033 C 9.782 3.338,6.857 7.151,6.694 7.458 C 6.495 7.832,6.389 8.274,6.389 8.720 C 6.390 9.178,6.467 9.499,6.688 9.960 C 6.907 10.419,7.430 10.949,7.880 11.168 C 8.433 11.438,8.518 11.450,9.950 11.469 L 11.240 11.487 11.240 16.633 C 11.240 20.265,11.253 21.827,11.285 21.939 C 11.344 22.152,11.578 22.380,11.798 22.439 C 12.198 22.547,12.610 22.319,12.718 21.929 C 12.746 21.830,12.760 20.050,12.760 16.633 L 12.760 11.487 14.050 11.469 C 15.481 11.450,15.566 11.438,16.120 11.169 C 16.565 10.953,17.090 10.421,17.313 9.959 C 17.522 9.526,17.611 9.153,17.610 8.700 C 17.610 8.256,17.495 7.803,17.288 7.430 C 17.206 7.284,16.430 6.244,15.563 5.119 C 13.874 2.927,13.769 2.812,13.221 2.543 C 12.732 2.303,12.098 2.201,11.595 2.280 " fill="#FAFAFA" stroke="none" fill-rule="evenodd"></path></svg>