<svg width="24" height="24" viewBox="0 0 24 24" fill="none" xmlns="http://www.w3.org/2000/svg"><path d="M11.616 3.280 C 11.235 3.333,11.047 3.394,10.677 3.584 C 10.126 3.868,9.600 4.333,7.913 6.027 C 6.504 7.442,6.321 7.639,6.280 7.795 C 6.130 8.366,6.635 8.871,7.205 8.719 C 7.360 8.678,7.570 8.484,9.060 7.005 C 10.528 5.548,11.116 5.000,11.214 5.000 C 11.228 5.000,11.240 8.388,11.240 12.530 C 11.240 17.900,11.253 20.106,11.285 20.219 C 11.344 20.432,11.578 20.660,11.798 20.719 C 12.198 20.827,12.610 20.599,12.718 20.209 C 12.746 20.109,12.760 17.586,12.760 12.530 C 12.760 8.388,12.772 5.000,12.786 5.000 C 12.884 5.000,13.472 5.548,14.940 7.005 C 16.430 8.484,16.640 8.678,16.795 8.719 C 17.365 8.871,17.869 8.367,17.720 7.795 C 17.680 7.638,17.496 7.441,15.967 5.917 C 14.205 4.160,13.845 3.844,13.274 3.557 C 12.784 3.311,12.155 3.206,11.616 3.280 " fill="#FAFAFA" stroke="none" fill-rule="evenodd"></path></svg>