<svg width="24" height="24" viewBox="0 0 24 24" fill="none" xmlns="http://www.w3.org/2000/svg"><path d="M11.120 2.039 C 9.316 2.220,7.707 2.807,6.280 3.806 C 2.738 6.286,1.178 10.759,2.422 14.865 C 2.918 16.499,3.728 17.850,4.939 19.061 C 5.928 20.050,7.038 20.788,8.272 21.278 C 11.634 22.610,15.313 22.080,18.200 19.845 C 18.637 19.507,19.507 18.637,19.845 18.200 C 21.255 16.379,22.000 14.234,22.000 12.000 C 22.000 7.432,18.842 3.387,14.430 2.303 C 13.446 2.062,12.028 1.948,11.120 2.039 M12.710 9.342 C 13.042 9.417,13.514 9.659,13.924 9.965 C 14.290 10.238,17.508 13.409,17.649 13.636 C 17.710 13.733,17.733 13.837,17.733 14.003 C 17.733 14.509,17.286 14.850,16.795 14.719 C 16.640 14.678,16.430 14.485,14.940 13.004 C 12.780 10.859,12.676 10.780,12.000 10.780 C 11.324 10.780,11.220 10.859,9.060 13.004 C 7.570 14.485,7.360 14.678,7.205 14.719 C 6.714 14.850,6.267 14.509,6.267 14.003 C 6.267 13.837,6.290 13.733,6.351 13.636 C 6.493 13.407,9.711 10.236,10.076 9.965 C 10.439 9.694,10.920 9.435,11.197 9.361 C 11.661 9.236,12.209 9.229,12.710 9.342 " fill="#FAFAFA" stroke="none" fill-rule="evenodd"></path></svg>