<svg width="24" height="24" viewBox="0 0 24 24" fill="none" xmlns="http://www.w3.org/2000/svg"><path d="M8.771 3.043 C 6.564 3.136,5.517 3.470,4.554 4.391 C 3.506 5.392,3.165 6.355,3.041 8.660 C 2.988 9.644,2.988 14.356,3.041 15.340 C 3.164 17.628,3.503 18.596,4.527 19.583 C 5.081 20.117,5.578 20.416,6.240 20.613 C 7.313 20.933,8.296 20.999,12.000 20.999 C 15.704 20.999,16.687 20.933,17.760 20.613 C 18.422 20.416,18.919 20.117,19.473 19.583 C 20.043 19.034,20.407 18.452,20.613 17.760 C 20.933 16.687,20.999 15.704,20.999 12.000 C 20.999 8.296,20.933 7.313,20.613 6.240 C 20.404 5.538,20.035 4.953,19.446 4.391 C 18.460 3.449,17.477 3.143,15.100 3.041 C 14.050 2.996,9.863 2.997,8.771 3.043 M12.677 7.346 C 12.944 7.415,13.326 7.619,13.657 7.870 C 13.959 8.098,16.533 10.650,16.649 10.836 C 16.710 10.933,16.733 11.036,16.733 11.203 C 16.733 11.709,16.285 12.050,15.795 11.919 C 15.641 11.878,15.449 11.703,14.200 10.466 L 12.780 9.060 12.760 12.647 L 12.740 16.233 12.619 16.405 C 12.453 16.642,12.273 16.739,12.000 16.739 C 11.727 16.739,11.547 16.642,11.381 16.405 L 11.260 16.233 11.240 12.647 L 11.220 9.060 9.800 10.466 C 8.551 11.703,8.359 11.878,8.205 11.919 C 7.715 12.050,7.267 11.709,7.267 11.203 C 7.267 11.036,7.290 10.933,7.351 10.836 C 7.467 10.650,10.041 8.098,10.343 7.870 C 10.616 7.663,11.029 7.431,11.242 7.364 C 11.646 7.236,12.228 7.229,12.677 7.346 " fill="#FAFAFA" stroke="none" fill-rule="evenodd"></path></svg>