<svg width="24" height="24" viewBox="0 0 24 24" fill="none" xmlns="http://www.w3.org/2000/svg"><path d="M8.771 3.043 C 6.564 3.136,5.517 3.470,4.554 4.391 C 3.506 5.392,3.165 6.355,3.041 8.660 C 2.988 9.644,2.988 14.356,3.041 15.340 C 3.164 17.628,3.503 18.596,4.527 19.583 C 5.081 20.117,5.578 20.416,6.240 20.613 C 7.313 20.933,8.296 20.999,12.000 20.999 C 15.704 20.999,16.687 20.933,17.760 20.613 C 18.422 20.416,18.919 20.117,19.473 19.583 C 20.043 19.034,20.407 18.452,20.613 17.760 C 20.933 16.687,20.999 15.704,20.999 12.000 C 20.999 8.296,20.933 7.313,20.613 6.240 C 20.404 5.538,20.035 4.953,19.446 4.391 C 18.460 3.449,17.477 3.143,15.100 3.041 C 14.050 2.996,9.863 2.997,8.771 3.043 M12.710 9.342 C 13.042 9.417,13.514 9.659,13.924 9.965 C 14.290 10.238,17.508 13.409,17.649 13.636 C 17.710 13.733,17.733 13.837,17.733 14.003 C 17.733 14.509,17.286 14.850,16.795 14.719 C 16.640 14.678,16.430 14.485,14.940 13.004 C 12.780 10.859,12.676 10.780,12.000 10.780 C 11.324 10.780,11.220 10.859,9.060 13.004 C 7.570 14.485,7.360 14.678,7.205 14.719 C 6.714 14.850,6.267 14.509,6.267 14.003 C 6.267 13.837,6.290 13.733,6.351 13.636 C 6.493 13.407,9.711 10.236,10.076 9.965 C 10.439 9.694,10.920 9.435,11.197 9.361 C 11.661 9.236,12.209 9.229,12.710 9.342 " fill="#FAFAFA" stroke="none" fill-rule="evenodd"></path></svg>