<svg width="24" height="24" viewBox="0 0 24 24" fill="none" xmlns="http://www.w3.org/2000/svg"><path d="M11.575 2.299 C 11.049 2.394,10.554 2.728,9.940 3.400 C 9.676 3.689,8.095 5.653,7.552 6.366 C 7.261 6.747,7.204 6.920,7.279 7.198 C 7.338 7.416,7.584 7.662,7.802 7.721 C 7.999 7.774,8.220 7.744,8.387 7.642 C 8.453 7.602,8.918 7.050,9.420 6.415 C 10.439 5.127,10.980 4.468,11.136 4.323 L 11.240 4.226 11.240 6.610 L 11.240 8.993 9.270 9.011 C 7.461 9.028,7.272 9.036,6.960 9.111 C 5.986 9.345,5.213 9.759,4.538 10.406 C 3.832 11.085,3.373 11.895,3.115 12.920 C 3.022 13.291,3.020 13.341,3.020 15.000 C 3.020 16.659,3.022 16.709,3.115 17.080 C 3.373 18.104,3.833 18.918,4.536 19.590 C 5.244 20.268,5.995 20.665,7.020 20.905 C 7.323 20.976,7.586 20.980,12.000 20.980 C 16.414 20.980,16.677 20.976,16.980 20.905 C 18.045 20.656,18.800 20.245,19.522 19.522 C 20.245 18.800,20.656 18.045,20.905 16.980 C 20.972 16.694,20.980 16.482,20.980 15.000 C 20.980 13.518,20.972 13.306,20.905 13.020 C 20.738 12.305,20.450 11.637,20.090 11.124 C 19.831 10.756,19.198 10.131,18.840 9.892 C 18.275 9.514,17.727 9.276,17.040 9.111 C 16.728 9.036,16.539 9.028,14.730 9.011 L 12.760 8.993 12.760 6.610 L 12.760 4.226 12.864 4.323 C 13.020 4.468,13.561 5.127,14.580 6.415 C 15.082 7.050,15.547 7.602,15.613 7.642 C 16.145 7.966,16.843 7.488,16.738 6.871 C 16.720 6.761,16.629 6.603,16.448 6.366 C 15.884 5.626,14.320 3.685,14.059 3.402 C 13.418 2.704,12.956 2.396,12.407 2.297 C 12.038 2.232,11.944 2.232,11.575 2.299 M12.751 13.117 L 12.740 17.233 12.619 17.405 C 12.453 17.642,12.273 17.739,12.000 17.739 C 11.727 17.739,11.547 17.642,11.381 17.405 L 11.260 17.233 11.249 13.117 L 11.238 9.000 12.000 9.000 L 12.762 9.000 12.751 13.117 " fill="#FAFAFA" stroke="none" fill-rule="evenodd"></path></svg>