<svg xmlns="http://www.w3.org/2000/svg" viewBox="0 0 24 24" fill="currentColor"><path d="M11.861 3.283 C 10.949 3.422,10.126 3.957,7.520 6.101 C 6.805 6.690,6.130 7.238,6.020 7.319 C 5.598 7.630,5.047 7.880,4.460 8.025 C 4.320 8.060,3.869 8.099,3.380 8.119 C 2.455 8.157,2.225 8.200,1.780 8.418 C 1.004 8.799,0.460 9.527,0.293 10.410 C 0.246 10.663,0.236 10.974,0.248 11.895 L 0.263 13.060 0.390 13.430 C 0.557 13.912,0.777 14.254,1.140 14.592 C 1.741 15.153,2.206 15.307,3.460 15.360 C 4.099 15.387,4.377 15.415,4.620 15.479 C 4.999 15.579,5.740 15.931,6.014 16.141 L 6.209 16.290 4.547 17.955 C 3.069 19.437,2.881 19.639,2.840 19.795 C 2.690 20.366,3.194 20.869,3.765 20.720 C 3.925 20.678,4.640 19.975,12.053 12.567 C 16.515 8.108,20.189 4.414,20.219 4.359 C 20.413 3.995,20.268 3.520,19.905 3.332 C 19.755 3.254,19.380 3.246,19.240 3.318 C 19.185 3.346,18.156 4.351,16.954 5.550 L 14.767 7.732 14.745 7.516 C 14.733 7.397,14.713 7.057,14.701 6.760 C 14.661 5.787,14.515 5.061,14.249 4.521 C 13.833 3.676,12.798 3.139,11.861 3.283 M20.700 5.983 C 20.547 6.062,20.250 6.348,20.177 6.488 C 20.082 6.667,20.106 6.852,20.250 7.055 C 21.148 8.324,21.464 8.958,21.716 9.990 C 21.886 10.689,21.935 11.208,21.908 12.010 C 21.855 13.562,21.370 14.909,20.407 16.180 C 20.307 16.312,19.800 16.852,19.281 17.380 C 18.315 18.361,18.240 18.461,18.240 18.756 C 18.240 18.878,18.348 19.121,18.452 19.235 C 18.570 19.364,18.828 19.478,19.000 19.478 C 19.279 19.478,19.435 19.355,20.422 18.355 C 21.421 17.343,21.822 16.858,22.221 16.180 C 23.147 14.607,23.577 12.684,23.398 10.914 C 23.232 9.261,22.542 7.534,21.572 6.341 C 21.243 5.935,20.991 5.832,20.700 5.983 M18.128 8.605 C 17.935 8.661,17.704 8.912,17.642 9.133 C 17.574 9.377,17.604 9.543,17.798 9.991 C 18.047 10.563,18.129 10.934,18.150 11.580 C 18.171 12.208,18.111 12.636,17.933 13.132 C 17.691 13.806,17.426 14.209,16.781 14.882 C 16.240 15.446,16.156 15.640,16.302 15.991 C 16.384 16.188,16.506 16.315,16.700 16.404 C 16.896 16.495,17.076 16.499,17.271 16.418 C 17.559 16.299,18.462 15.327,18.831 14.738 C 19.154 14.224,19.451 13.452,19.587 12.775 C 19.694 12.241,19.684 11.157,19.567 10.612 C 19.417 9.916,19.083 9.073,18.844 8.788 C 18.671 8.582,18.426 8.519,18.128 8.605 M13.480 13.192 C 13.248 13.345,9.330 17.283,9.174 17.520 C 9.001 17.784,8.960 17.901,8.960 18.123 C 8.960 18.525,9.197 18.791,10.059 19.357 C 10.695 19.774,11.146 20.003,11.560 20.117 C 12.635 20.415,13.781 19.899,14.261 18.900 C 14.627 18.137,14.727 17.347,14.735 15.160 L 14.740 13.660 14.643 13.491 C 14.489 13.222,14.284 13.104,13.944 13.088 C 13.685 13.076,13.644 13.085,13.480 13.192 " stroke="none" fill-rule="evenodd"></path></svg>