<svg xmlns="http://www.w3.org/2000/svg" viewBox="0 0 24 24" fill="currentColor"><path d="M11.861 3.283 C 10.949 3.422,10.126 3.957,7.520 6.101 C 6.805 6.690,6.130 7.238,6.020 7.319 C 5.598 7.630,5.047 7.880,4.460 8.025 C 4.320 8.060,3.869 8.099,3.380 8.119 C 2.455 8.157,2.225 8.200,1.780 8.418 C 1.004 8.799,0.460 9.527,0.293 10.410 C 0.246 10.663,0.236 10.974,0.248 11.895 L 0.263 13.060 0.390 13.430 C 0.557 13.912,0.777 14.254,1.140 14.592 C 1.741 15.153,2.206 15.307,3.460 15.360 C 4.457 15.402,4.727 15.460,5.381 15.778 C 5.884 16.023,5.974 16.089,7.529 17.369 C 8.959 18.546,9.596 19.043,10.151 19.414 C 11.439 20.275,12.321 20.415,13.286 19.914 C 14.098 19.492,14.495 18.746,14.665 17.319 C 14.719 16.865,14.733 16.093,14.748 12.420 C 14.775 6.280,14.725 5.488,14.249 4.521 C 13.833 3.676,12.798 3.139,11.861 3.283 M18.633 4.090 C 18.438 4.209,18.333 4.350,18.274 4.571 C 18.180 4.923,18.227 4.995,19.196 5.980 C 20.166 6.965,20.389 7.221,20.731 7.740 C 21.338 8.661,21.707 9.644,21.864 10.760 C 21.958 11.428,21.922 12.525,21.784 13.183 C 21.554 14.278,21.101 15.264,20.407 16.180 C 20.307 16.312,19.800 16.852,19.281 17.380 C 18.315 18.361,18.240 18.461,18.240 18.756 C 18.240 18.878,18.348 19.121,18.452 19.235 C 18.570 19.364,18.828 19.478,19.000 19.478 C 19.279 19.478,19.435 19.355,20.422 18.355 C 21.421 17.343,21.822 16.858,22.221 16.180 C 23.147 14.607,23.577 12.684,23.398 10.914 C 23.232 9.263,22.615 7.703,21.610 6.389 C 21.246 5.913,19.660 4.278,19.402 4.114 C 19.170 3.965,18.853 3.956,18.633 4.090 M16.633 7.090 C 16.438 7.209,16.333 7.350,16.274 7.571 C 16.191 7.882,16.262 8.024,16.759 8.543 C 17.429 9.241,17.774 9.784,17.980 10.460 C 18.237 11.306,18.224 12.286,17.945 13.104 C 17.722 13.760,17.441 14.191,16.804 14.858 C 16.227 15.461,16.146 15.653,16.316 16.020 C 16.497 16.412,16.923 16.579,17.300 16.404 C 17.500 16.311,18.265 15.534,18.588 15.095 C 19.039 14.483,19.392 13.681,19.568 12.868 C 19.687 12.319,19.696 11.195,19.586 10.681 C 19.322 9.442,18.860 8.577,17.956 7.623 C 17.474 7.115,17.298 7.000,17.002 7.000 C 16.842 7.000,16.739 7.026,16.633 7.090 " stroke="none" fill-rule="evenodd"></path></svg>