<svg xmlns="http://www.w3.org/2000/svg" viewBox="0 0 22 22" fill="currentColor"><path d="M6.545 1.872 C 4.724 1.955,3.912 2.227,3.106 3.023 C 2.330 3.789,2.010 4.625,1.891 6.197 C 1.871 6.466,1.871 6.470,1.934 6.381 C 2.535 5.531,2.998 5.081,3.715 4.649 C 4.257 4.324,4.934 4.119,5.812 4.014 C 6.533 3.929,8.178 3.889,11.000 3.889 C 14.893 3.889,16.148 3.945,17.034 4.159 C 17.234 4.208,17.405 4.240,17.414 4.231 C 17.423 4.223,17.411 3.985,17.386 3.703 C 17.312 2.834,17.120 2.408,16.683 2.142 C 16.431 1.988,16.157 1.918,15.620 1.871 C 15.137 1.829,7.470 1.829,6.545 1.872 M6.893 4.622 C 5.794 4.672,5.035 4.800,4.493 5.025 C 3.644 5.378,2.758 6.224,2.360 7.060 C 2.073 7.663,1.937 8.344,1.870 9.515 C 1.824 10.323,1.824 14.427,1.870 15.235 C 1.979 17.127,2.311 17.995,3.279 18.911 C 4.159 19.744,4.978 20.030,6.773 20.129 C 7.620 20.176,14.380 20.176,15.227 20.129 C 17.022 20.030,17.841 19.744,18.721 18.911 C 19.650 18.032,20.022 17.108,20.116 15.448 L 20.141 15.000 17.010 14.988 C 13.925 14.976,13.874 14.975,13.595 14.896 C 12.927 14.709,12.419 14.407,11.994 13.945 C 10.870 12.726,10.874 10.866,12.003 9.619 C 12.241 9.356,12.622 9.082,12.985 8.913 C 13.610 8.621,13.356 8.639,16.897 8.626 L 20.063 8.614 20.038 8.460 C 19.852 7.284,19.503 6.585,18.741 5.857 C 17.826 4.982,16.999 4.709,14.997 4.620 C 14.089 4.579,7.797 4.581,6.893 4.622 M13.943 10.029 C 12.809 10.276,12.206 11.514,12.705 12.571 C 12.940 13.066,13.428 13.451,13.963 13.563 C 14.095 13.590,15.110 13.603,17.162 13.603 L 20.167 13.603 20.158 11.797 L 20.148 9.992 17.160 9.985 C 14.761 9.980,14.127 9.989,13.943 10.029 M17.221 11.242 C 17.421 11.404,17.506 11.566,17.506 11.789 C 17.506 12.046,17.363 12.286,17.149 12.390 C 16.996 12.464,16.937 12.467,15.583 12.467 C 14.230 12.467,14.170 12.464,14.018 12.390 C 13.638 12.206,13.539 11.677,13.824 11.353 C 14.041 11.106,14.013 11.109,15.626 11.119 L 17.080 11.128 17.221 11.242 " stroke="none" fill-rule="evenodd"></path></svg>