<svg width="18" height="18" viewBox="0 0 18 18" fill="none" xmlns="http://www.w3.org/2000/svg"><path d="M6.270 2.042 C 3.767 2.112,2.290 2.246,1.770 2.452 C 0.995 2.757,0.493 3.405,0.302 4.341 C -0.094 6.285,-0.093 10.654,0.303 12.654 C 0.431 13.298,0.588 13.609,0.989 14.013 C 1.237 14.263,1.315 14.321,1.562 14.441 C 1.991 14.650,2.478 14.741,3.660 14.832 C 7.559 15.136,14.782 15.004,16.073 14.605 C 16.771 14.390,17.326 13.859,17.563 13.182 C 17.979 11.991,18.130 8.119,17.863 5.475 C 17.709 3.943,17.459 3.301,16.823 2.803 C 16.431 2.497,16.114 2.381,15.396 2.280 C 13.821 2.060,9.596 1.950,6.270 2.042 M9.555 7.114 C 11.587 8.321,11.876 8.502,11.829 8.534 C 11.786 8.564,7.309 11.224,7.223 11.271 C 7.210 11.278,7.200 10.034,7.200 8.507 C 7.200 6.980,7.206 5.730,7.214 5.730 C 7.221 5.730,8.275 6.353,9.555 7.114 " fill="#8D8D92" stroke="none" fill-rule="evenodd"></path></svg>