<svg width="16" height="16" viewBox="0 0 16 16" fill="none" xmlns="http://www.w3.org/2000/svg">
<g clip-path="url(#clip0_1946_21)">
<path d="M7.02292 8.94661C10.4979 13.396 15.2634 16.1861 17.7782 14.222C20.2931 12.2579 19.6051 6.28335 16.1301 1.83394C12.6551 -2.61546 7.79942 -4.63019 5.28454 -2.66608C2.76966 -0.701969 3.54796 4.49721 7.02292 8.94661Z" fill="#E84337"/>
<path d="M3.51928 11.6824C6.99425 16.1318 11.6039 18.3387 13.8153 16.6117C15.3856 15.3852 15.3243 12.5048 13.9123 9.34454C13.5655 8.56821 13.1371 7.77498 12.6314 6.98525C12.2969 6.46273 11.9284 5.94174 11.5273 5.42818C8.05236 0.97878 3.44269 -1.22811 1.23133 0.498947C-0.980029 2.22601 0.0443226 7.23302 3.51928 11.6824Z" fill="#FEA740"/>
<ellipse cx="6.22222" cy="10.2222" rx="6.22222" ry="10.2222" transform="matrix(-0.788122 0.615519 0.615519 0.788122 2.2522 -0.888916)" fill="#FEED2F"/>
<ellipse cx="5.77778" cy="10.2222" rx="5.77778" ry="10.2222" transform="matrix(-0.788122 0.615519 0.615519 0.788122 -1.11499 2.66675)" fill="#59C3EF"/>
<path fill-rule="evenodd" clip-rule="evenodd" d="M8.30827 -3.28173C8.2649 -3.64698 7.73489 -3.64698 7.69152 -3.28173L7.32795 -0.217607C6.85848 3.739 3.739 6.85848 -0.217607 7.32795L-3.28173 7.69152C-3.64698 7.73489 -3.64698 8.2649 -3.28173 8.30827L-0.217607 8.67184C3.739 9.14131 6.85848 12.2608 7.32795 16.2174L7.69152 19.2815C7.73489 19.6468 8.2649 19.6468 8.30827 19.2815L8.67184 16.2174C9.14131 12.2608 12.2608 9.14131 16.2174 8.67184L19.2815 8.30827C19.6468 8.2649 19.6468 7.73489 19.2815 7.69152L16.2174 7.32795C12.2608 6.85848 9.14131 3.739 8.67184 -0.217607L8.30827 -3.28173ZM8.15408 2.35908C8.13239 2.17646 7.86739 2.17646 7.8457 2.35908L7.66392 3.89114C7.42919 5.86945 5.86945 7.42919 3.89114 7.66392L2.35908 7.8457C2.17646 7.86739 2.17646 8.13239 2.35908 8.15408L3.89114 8.33587C5.86945 8.5706 7.42919 10.1303 7.66392 12.1086L7.8457 13.6407C7.86739 13.8233 8.13239 13.8233 8.15408 13.6407L8.33587 12.1086C8.5706 10.1303 10.1303 8.5706 12.1086 8.33587L13.6407 8.15408C13.8233 8.13239 13.8233 7.86739 13.6407 7.8457L12.1086 7.66392C10.1303 7.42919 8.5706 5.86945 8.33587 3.89114L8.15408 2.35908Z" fill="#FFFAC0"/>
<path d="M7.8457 2.35908C7.86739 2.17646 8.13239 2.17646 8.15408 2.35908L8.33587 3.89114C8.5706 5.86945 10.1303 7.42919 12.1086 7.66392L13.6407 7.8457C13.8233 7.86739 13.8233 8.13239 13.6407 8.15408L12.1086 8.33587C10.1303 8.5706 8.5706 10.1303 8.33587 12.1086L8.15408 13.6407C8.13239 13.8233 7.86739 13.8233 7.8457 13.6407L7.66392 12.1086C7.42919 10.1303 5.86945 8.5706 3.89114 8.33587L2.35908 8.15408C2.17646 8.13239 2.17646 7.86739 2.35908 7.8457L3.89114 7.66392C5.86945 7.42919 7.42919 5.86945 7.66392 3.89114L7.8457 2.35908Z" fill="#59C3EF"/>
</g>
<defs>
<clipPath id="clip0_1946_21">
<rect width="16" height="16" rx="4" fill="white"/>
</clipPath>
</defs>
</svg>
